<?xml version="1.0" encoding="UTF-8" standalone="no"?>
<svg
   xmlns:dc="http://purl.org/dc/elements/1.1/"
   xmlns:cc="http://creativecommons.org/ns#"
   xmlns:rdf="http://www.w3.org/1999/02/22-rdf-syntax-ns#"
   xmlns:svg="http://www.w3.org/2000/svg"
   xmlns="http://www.w3.org/2000/svg"
   xmlns:sodipodi="http://sodipodi.sourceforge.net/DTD/sodipodi-0.dtd"
   xmlns:inkscape="http://www.inkscape.org/namespaces/inkscape"
   version="1.0"
   width="1169.000000pt"
   height="847.000000pt"
   viewBox="0 0 1169.000000 847.000000"
   preserveAspectRatio="xMidYMid meet"
   id="svg3643"
   inkscape:version="0.91 r13725"
   sodipodi:docname="icoEduc.svg">
  <defs
     id="defs3701" />
  <sodipodi:namedview
     pagecolor="#ffffff"
     bordercolor="#666666"
     borderopacity="1"
     objecttolerance="10"
     gridtolerance="10"
     guidetolerance="10"
     inkscape:pageopacity="0"
     inkscape:pageshadow="2"
     inkscape:window-width="1301"
     inkscape:window-height="744"
     id="namedview3699"
     showgrid="false"
     showguides="false"
     inkscape:zoom="3.243174"
     inkscape:cx="726.37313"
     inkscape:cy="540.43085"
     inkscape:window-x="65"
     inkscape:window-y="24"
     inkscape:window-maximized="1"
     inkscape:current-layer="svg3643" />
  <metadata
     id="metadata3645">
Created by potrace 1.13, written by Peter Selinger 2001-2015
<rdf:RDF>
  <cc:Work
     rdf:about="">
    <dc:format>image/svg+xml</dc:format>
    <dc:type
       rdf:resource="http://purl.org/dc/dcmitype/StillImage" />
  </cc:Work>
</rdf:RDF>
</metadata>
  <g
     transform="translate(0.000000,847.000000) scale(0.100000,-0.100000)"
     fill="#000000"
     stroke="none"
     id="g3647">
    <path
       d="M5755 4808 c-127 -31 -177 -51 -217 -84 -23 -20 -52 -40 -64 -44 -50 -19 -154 -186 -188 -300 -17 -56 -23 -211 -11 -266 60 -269 212 -412 494 -464 185 -34 340 14 491 152 115 105 188 293 177 461 -6 112 -36 196 -108 302 -51 76 -73 98 -137 142 -84 56 -130 78 -210 99 -60 16 -167 17 -227 2z m262 -33 c188 -60 336 -216 389 -410 23 -85 16 -236 -16 -319 l-11 -29 -15 22 c-9 12 -52 47 -97 79 l-82 57 45 6 45 6 -38 1 c-46 2 -41 17 9 27 20 3 34 8 31 11 -2 3 -23 1 -46 -5 -48 -11 -46 3 4 19 19 6 35 16 35 22 0 6 -8 7 -17 3 -10 -4 -27 -10 -38 -13 -19 -5 -19 -5 -2 12 18 19 23 36 9 36 -5 0 -17 -9 -27 -20 -10 -11 -20 -18 -22 -16 -2 2 8 16 22 32 22 23 28 26 35 14 6 -8 10 -19 10 -24 0 -6 5 -5 11 1 8 8 7 17 -5 34 -21 30 -20 36 3 42 21 5 31 -10 31 -49 0 -26 7 -29 29 -15 10 6 12 19 7 45 -6 31 -4 36 12 36 11 0 25 7 32 15 7 8 8 15 3 15 -5 0 -16 12 -25 28 -9 15 -43 54 -76 88 l-59 61 -69 2 c-66 1 -71 3 -101 37 l-32 37 -38 -34 c-42 -37 -43 -42 -5 -83 18 -19 21 -27 10 -23 -11 4 -22 -2 -32 -17 -13 -20 -13 -27 0 -51 8 -16 32 -47 54 -71 36 -39 40 -41 59 -28 27 19 101 14 114 -7 17 -27 1 -49 -35 -49 -27 -1 -36 -6 -48 -33 -8 -18 -14 -40 -12 -50 3 -14 8 -12 28 12 30 36 31 51 3 25 -22 -19 -22 -19 -10 4 7 14 21 22 36 22 14 0 25 -2 25 -5 0 -14 -24 -54 -31 -49 -4 2 -13 -6 -20 -18 -11 -21 -11 -22 4 -10 13 11 21 8 52 -21 21 -19 41 -50 45 -69 8 -32 8 -32 9 -5 1 35 18 26 30 -16 8 -28 9 -29 10 -8 l1 24 25 -23 c14 -13 25 -33 26 -44 1 -19 2 -18 8 3 14 50 38 -20 32 -95 -3 -55 -206 -244 -262 -244 -15 0 -43 -7 -63 -15 l-37 -16 18 28 17 28 -27 -24 c-34 -31 -35 -12 -2 37 34 49 32 67 -2 19 -14 -20 -28 -35 -31 -33 -2 3 5 17 15 33 32 46 37 60 9 28 l-25 -30 -1 32 c0 17 3 33 8 35 13 6 49 83 45 96 -4 10 -9 8 -20 -7 -8 -12 -18 -21 -22 -21 -12 0 4 78 28 133 24 55 27 134 4 116 -15 -13 -18 -33 -4 -25 5 4 7 -3 4 -14 -3 -11 -10 -23 -16 -27 -6 -4 -8 2 -5 15 4 16 2 19 -10 14 -12 -4 -11 2 6 25 12 17 22 35 22 39 0 4 7 16 17 26 29 33 4 33 -28 0 -17 -18 -36 -33 -43 -33 -34 -4 -52 -7 -61 -10 -5 -2 -26 2 -45 8 -19 6 -65 14 -102 18 -66 6 -67 7 -79 43 -6 20 -18 43 -27 49 -12 10 -13 17 -4 37 9 21 9 24 -3 20 -25 -10 -28 -42 -6 -70 12 -15 21 -34 21 -42 0 -22 30 -52 52 -52 10 0 18 -4 18 -8 0 -5 19 -7 43 -5 65 6 163 -25 192 -59 41 -49 35 -53 -69 -55 -52 -1 -122 -9 -156 -17 -34 -9 -70 -16 -79 -16 -17 0 -41 37 -41 62 0 7 -37 85 -81 176 -46 91 -78 167 -73 172 5 4 56 11 114 14 58 3 117 9 131 12 20 4 29 0 43 -20 21 -33 15 -43 -29 -52 -19 -3 -40 -13 -47 -22 -11 -14 -10 -15 7 -8 11 4 41 12 67 18 26 6 71 29 102 52 30 23 63 46 73 53 16 10 16 12 2 12 -10 1 -41 -17 -70 -39 -30 -22 -57 -40 -61 -40 -14 0 -21 51 -10 74 6 13 42 44 81 70 39 25 71 51 71 56 0 6 -2 10 -5 10 -13 0 -130 -88 -152 -114 -28 -33 -20 -31 -193 -41 -122 -8 -166 -17 -155 -35 3 -4 -1 -11 -7 -14 -10 -5 -10 -7 0 -12 22 -10 13 -30 -15 -32 -35 -3 -42 -11 -20 -26 9 -7 17 -16 17 -19 0 -3 19 -36 42 -73 23 -38 67 -120 97 -183 76 -155 73 -149 92 -154 10 -3 30 1 44 9 35 18 118 43 180 54 28 5 65 12 84 16 l33 7 -6 -39 c-3 -21 -8 -93 -11 -159 -3 -65 -8 -122 -11 -125 -13 -13 -147 2 -234 27 -210 59 -321 171 -386 388 -26 85 -23 229 6 315 46 136 103 218 204 290 90 64 106 72 194 95 122 31 212 31 309 0z m0 -165 c16 -25 3 -33 -43 -24 l-36 7 29 18 c35 23 35 23 50 -1z m89 -163 c4 -6 -12 6 -34 27 -23 22 -39 43 -35 48 3 6 10 5 16 -1 16 -16 27 -13 28 7 1 9 5 -2 10 -26 4 -23 11 -48 15 -55z m-27 -4 c20 -18 33 -34 30 -37 -3 -3 -30 20 -60 51 -53 56 -39 50 30 -14z m129 13 c-18 -13 -24 -47 -11 -59 3 -4 12 -2 20 5 11 9 17 8 28 -3 12 -12 7 -14 -38 -17 -40 -2 -48 1 -39 10 7 7 12 29 12 49 0 38 16 55 35 37 7 -6 4 -14 -7 -22z m78 -31 c16 -14 23 -25 16 -25 -7 0 -25 11 -40 25 -35 33 -14 33 24 0z m-812 -172 c21 -42 21 -52 -1 -22 -23 30 -53 85 -53 94 0 11 35 -36 54 -72z m35 -98 c0 -5 -4 -3 -9 5 -5 8 -9 22 -9 30 0 16 17 -16 18 -35z m21 -33 c0 -10 4 -22 9 -27 5 -6 12 -21 15 -35 6 -21 5 -22 -4 -7 -22 35 -40 87 -30 87 5 0 10 -8 10 -18z m237 -118 c-3 -3 -12 -4 -19 -1 -8 3 -5 6 6 6 11 1 17 -2 13 -5z m-45 -34 c-31 -32 -75 -49 -97 -37 -11 5 -23 15 -27 21 -11 16 2 28 18 15 7 -6 20 -9 28 -6 11 4 13 1 9 -11 -5 -14 -3 -15 8 -4 7 6 21 12 32 12 10 0 15 5 12 10 -3 6 -1 10 5 10 6 0 8 4 5 10 -3 5 0 7 9 4 13 -5 13 -8 -2 -24z m256 -95 c-8 -18 -14 -22 -19 -13 -4 7 0 17 9 25 23 17 23 17 10 -12z"
       id="path3657"
       style="fill:#80b3ff" />
    <path
       d="M5890 4530 c0 -5 5 -10 11 -10 5 0 7 5 4 10 -3 6 -8 10 -11 10 -2 0 -4 -4 -4 -10z"
       id="path3659"
       style="fill:#80b3ff;fill-opacity:1" />
    <path
       d="M5800 4450 c0 -6 -4 -8 -10 -5 -5 3 -10 2 -10 -4 0 -17 14 -20 27 -5 8 8 9 15 3 19 -6 3 -10 1 -10 -5z"
       id="path3661"
       style="fill:#80b3ff;fill-opacity:1" />
    <path
       d="M5670 4388 c0 -4 7 -8 15 -8 8 0 15 4 15 8 0 5 -7 9 -15 9 -8 0 -15 -4 -15 -9z"
       id="path3663"
       style="fill:#80b3ff;fill-opacity:1" />
    <path
       d="M5630 4379 c0 -5 5 -7 10 -4 6 3 10 8 10 11 0 2 -4 4 -10 4 -5 0 -10 -5 -10 -11z"
       id="path3665"
       style="fill:#80b3ff;fill-opacity:1" />
    <path
       d="M5565 4370 c3 -5 8 -10 11 -10 2 0 4 5 4 10 0 6 -5 10 -11 10 -5 0 -7 -4 -4 -10z"
       id="path3667"
       style="fill:#80b3ff;fill-opacity:1" />
    <path
       d="M5595 4370 c3 -5 8 -10 11 -10 2 0 4 5 4 10 0 6 -5 10 -11 10 -5 0 -7 -4 -4 -10z"
       id="path3669"
       style="fill:#80b3ff;fill-opacity:1" />
    <path
       d="M5502 4358 c2 -6 10 -14 16 -16 7 -2 10 2 6 12 -7 18 -28 22 -22 4z"
       id="path3671"
       style="fill:#80b3ff;fill-opacity:1" />
    <path
       d="M5535 4360 c3 -5 8 -10 11 -10 2 0 4 5 4 10 0 6 -5 10 -11 10 -5 0 -7 -4 -4 -10z"
       id="path3673"
       style="fill:#80b3ff;fill-opacity:1" />
    <path
       d="M5480 4339 c7 -11 14 -18 17 -15 8 8 -5 36 -17 36 -7 0 -7 -6 0 -21z"
       id="path3675"
       style="fill:#80b3ff;fill-opacity:1" />
    <path
       d="M5520 4276 c0 -9 7 -16 16 -16 9 0 14 5 12 12 -6 18 -28 21 -28 4z"
       id="path3677"
       style="fill:#80b3ff;fill-opacity:1" />
    <path
       d="M5575 4229 c-4 -6 -5 -13 -2 -16 7 -7 27 6 27 18 0 12 -17 12 -25 -2z"
       id="path3679"
       style="fill:#80b3ff;fill-opacity:1" />
    <path
       d="M5570 4181 c0 -4 11 -6 25 -3 14 2 25 6 25 8 0 2 -11 4 -25 4 -14 0 -25 -4 -25 -9z"
       id="path3681"
       style="fill:#80b3ff;fill-opacity:1" />
    <path
       d="M6123 4164 c-6 -13 -7 -24 -3 -24 9 0 25 39 18 45 -2 2 -8 -7 -15 -21z"
       id="path3683"
       style="fill:#80b3ff;fill-opacity:1" />
    <path
       d="M5590 4120 c0 -5 5 -10 11 -10 5 0 7 5 4 10 -3 6 -8 10 -11 10 -2 0 -4 -4 -4 -10z"
       id="path3685"
       style="fill:#80b3ff;fill-opacity:1" />
    <path
       d="M5625 4120 c3 -5 12 -7 20 -3 21 7 19 13 -6 13 -11 0 -18 -4 -14 -10z"
       id="path3687"
       style="fill:#80b3ff;fill-opacity:1" />
    <path
       d="M5820 4110 c0 -5 7 -10 16 -10 8 0 12 5 9 10 -3 6 -10 10 -16 10 -5 0 -9 -4 -9 -10z"
       id="path3689"
       style="fill:#80b3ff;fill-opacity:1" />
    <path
       d="M5780 4094 c0 -8 5 -12 10 -9 6 4 8 11 5 16 -9 14 -15 11 -15 -7z"
       id="path3691"
       style="fill:#80b3ff;fill-opacity:1" />
    <path
       d="M5710 4090 c0 -5 5 -10 11 -10 5 0 7 5 4 10 -3 6 -8 10 -11 10 -2 0 -4 -4 -4 -10z"
       id="path3693"
       style="fill:#80b3ff;fill-opacity:1" />
    <path
       d="M5650 4070 c0 -5 4 -10 9 -10 6 0 13 5 16 10 3 6 -1 10 -9 10 -9 0 -16 -4 -16 -10z"
       id="path3695"
       style="fill:#80b3ff;fill-opacity:1" />
  </g>
</svg>
