<?xml version="1.0" encoding="UTF-8" standalone="no"?>
<svg
   xmlns:dc="http://purl.org/dc/elements/1.1/"
   xmlns:cc="http://creativecommons.org/ns#"
   xmlns:rdf="http://www.w3.org/1999/02/22-rdf-syntax-ns#"
   xmlns:svg="http://www.w3.org/2000/svg"
   xmlns="http://www.w3.org/2000/svg"
   xmlns:sodipodi="http://sodipodi.sourceforge.net/DTD/sodipodi-0.dtd"
   xmlns:inkscape="http://www.inkscape.org/namespaces/inkscape"
   version="1.0"
   width="1169.000000pt"
   height="847.000000pt"
   viewBox="0 0 1169.000000 847.000000"
   preserveAspectRatio="xMidYMid meet"
   id="svg7253"
   inkscape:version="0.91 r13725"
   sodipodi:docname="icoHyg.svg">
  <defs
     id="defs7311" />
  <sodipodi:namedview
     pagecolor="#ffffff"
     bordercolor="#666666"
     borderopacity="1"
     objecttolerance="10"
     gridtolerance="10"
     guidetolerance="10"
     inkscape:pageopacity="0"
     inkscape:pageshadow="2"
     inkscape:window-width="1301"
     inkscape:window-height="744"
     id="namedview7309"
     showgrid="false"
     inkscape:zoom="2.4311408"
     inkscape:cx="760.73199"
     inkscape:cy="557.89859"
     inkscape:window-x="65"
     inkscape:window-y="24"
     inkscape:window-maximized="1"
     inkscape:current-layer="svg7253"
     showguides="false" />
  <metadata
     id="metadata7255">
Created by potrace 1.13, written by Peter Selinger 2001-2015
<rdf:RDF>
  <cc:Work
     rdf:about="">
    <dc:format>image/svg+xml</dc:format>
    <dc:type
       rdf:resource="http://purl.org/dc/dcmitype/StillImage" />
  </cc:Work>
</rdf:RDF>
</metadata>
  <g
     transform="translate(0.000000,847.000000) scale(0.100000,-0.100000)"
     fill="#000000"
     stroke="none"
     id="g7257">
    <path
       d="M5682 4805 c-150 -52 -235 -111 -309 -217 -56 -79 -71 -113 -93 -211 -15 -67 -17 -95 -9 -185 13 -138 28 -183 97 -286 56 -83 107 -133 167 -163 l30 -15 -22 21 c-12 11 -26 21 -31 21 -15 0 -115 112 -151 168 -88 139 -107 392 -39 537 40 86 111 185 133 185 8 0 18 6 22 13 14 24 87 67 112 67 15 0 38 -15 63 -40 39 -41 48 -76 26 -98 -9 -9 -9 -12 -1 -12 7 0 15 9 18 20 4 14 15 20 36 20 17 0 32 6 35 15 6 15 40 20 69 9 14 -6 14 -8 -2 -27 -18 -20 -18 -20 10 -2 21 14 27 14 29 4 0 -8 2 -21 3 -29 1 -8 -3 -21 -8 -28 -7 -9 -5 -11 9 -6 13 4 8 -4 -13 -25 -30 -28 -138 -70 -150 -58 -3 3 13 11 36 17 47 12 56 22 13 14 -22 -4 -29 -2 -29 10 0 9 5 16 10 16 15 0 77 32 77 40 0 4 -17 0 -37 -10 -21 -10 -53 -21 -72 -24 -28 -5 -31 -4 -22 8 9 11 8 15 -4 20 -13 5 -16 0 -13 -26 2 -17 10 -33 18 -35 13 -4 13 -3 0 6 -12 9 -10 11 10 11 l25 -1 -23 -18 c-22 -19 -21 -51 2 -51 35 0 139 48 181 85 55 47 55 59 1 100 -26 20 -47 27 -79 27 -37 0 -46 4 -60 26 -9 15 -27 39 -41 54 -14 15 -26 29 -26 31 0 3 15 11 33 18 22 10 68 13 146 12 125 -2 150 -8 281 -73 74 -36 90 -48 143 -109 37 -41 38 -43 21 -62 -23 -26 -7 -55 28 -52 25 1 40 -24 76 -126 14 -41 14 -45 -2 -57 -24 -17 -17 -58 10 -62 19 -3 20 -7 13 -70 -7 -57 -48 -194 -63 -209 -10 -11 -58 9 -82 32 -30 30 -32 65 -4 65 22 0 40 28 40 64 0 24 -41 76 -60 76 -6 0 -10 6 -10 14 0 7 -7 19 -15 26 -14 12 -14 15 1 31 9 10 14 27 11 38 -3 12 1 22 9 25 8 3 14 20 14 41 0 19 3 35 6 35 10 0 64 -58 64 -69 0 -6 -9 -11 -19 -11 -23 0 -52 -36 -44 -55 2 -8 18 -18 34 -24 32 -11 36 -20 17 -40 -11 -10 -8 -11 13 -6 25 6 26 5 24 -32 -3 -60 -4 -62 -26 -84 -27 -27 -16 -38 12 -13 20 18 44 61 41 75 -1 4 -3 18 -6 33 -3 14 -12 33 -20 42 -18 17 -17 15 -21 62 -1 18 1 35 6 38 17 10 9 33 -21 64 -28 29 -34 31 -73 24 -23 -4 -52 -6 -64 -5 -31 3 -93 -28 -93 -47 0 -13 2 -13 14 3 8 11 20 16 29 12 9 -3 19 -2 22 3 11 17 35 11 35 -9 0 -11 5 -23 11 -26 6 -5 4 -11 -7 -19 -11 -9 -15 -21 -11 -35 4 -17 2 -21 -8 -17 -8 3 -41 11 -73 17 -76 16 -131 2 -208 -53 -43 -32 -66 -41 -112 -45 -72 -7 -103 -25 -96 -55 3 -13 8 -34 10 -48 3 -14 7 -35 10 -47 4 -23 44 -39 98 -42 16 0 37 -7 45 -15 12 -10 33 -13 78 -9 68 6 86 -4 117 -64 20 -40 20 -70 0 -118 -8 -20 -16 -55 -17 -76 -1 -34 -5 -40 -32 -48 -42 -14 -136 -24 -110 -12 32 14 47 37 43 68 -2 24 -8 28 -36 31 -18 2 -40 -2 -48 -9 -19 -16 -18 -58 3 -81 15 -17 13 -18 -55 -18 -50 0 -94 8 -148 26 -42 14 -78 23 -81 21 -2 -3 29 -17 69 -33 66 -25 84 -28 193 -27 127 1 252 26 304 61 14 10 43 27 65 37 40 21 176 172 176 196 0 8 14 52 30 99 17 47 34 120 39 162 8 67 6 85 -14 145 -38 117 -112 251 -167 305 -52 51 -171 114 -267 142 -87 25 -230 21 -319 -9z m-11 -46 c11 -6 18 -16 16 -24 -3 -7 1 -12 8 -11 8 0 14 -3 14 -8 -1 -5 5 -12 12 -17 10 -6 9 -9 -4 -15 -23 -9 -39 7 -40 40 -1 14 -7 28 -14 30 -7 3 -10 -1 -6 -10 6 -16 -5 -18 -26 -5 -14 9 -7 31 10 31 6 0 19 -5 30 -11z m73 -87 c2 -4 -4 -9 -15 -9 -11 -1 -17 2 -14 8 7 11 22 12 29 1z m169 -94 c-2 -5 -9 -8 -14 -8 -6 0 -7 5 -4 10 3 6 1 10 -5 10 -6 0 -8 4 -5 10 4 6 11 5 19 -3 8 -6 12 -15 9 -19z m424 -23 c7 -20 -2 -29 -21 -22 -9 4 -13 13 -10 22 8 19 23 19 31 0z m-85 -167 c-9 -9 -15 -9 -24 0 -10 10 -10 15 2 22 20 12 38 -6 22 -22z m-17 -58 c3 -6 -1 -13 -10 -16 -19 -8 -30 0 -20 15 8 14 22 14 30 1z m92 -6 c7 -19 -18 -38 -28 -22 -9 14 0 38 12 38 5 0 12 -7 16 -16z m-189 -25 c54 -13 103 -49 69 -49 -10 0 -17 -4 -17 -10 0 -5 11 -10 24 -10 37 0 88 -53 84 -87 -2 -23 -8 -28 -29 -28 -22 1 -27 -4 -27 -25 -1 -45 18 -77 62 -101 l43 -22 -51 -78 c-28 -42 -62 -83 -76 -91 -13 -7 -49 -28 -79 -45 -30 -18 -64 -33 -74 -33 -17 0 -19 5 -14 43 6 45 27 97 54 137 17 24 17 24 1 11 -15 -11 -19 -11 -24 4 -4 9 -2 27 5 41 15 34 14 52 -2 30 -13 -18 -15 -18 -40 4 l-27 24 33 28 c35 31 33 32 -28 3 -58 -27 -147 -32 -169 -10 -11 12 -32 17 -61 17 -47 -1 -66 13 -67 50 0 13 -5 33 -10 45 -6 12 -8 28 -5 36 6 15 50 27 99 27 30 0 108 37 108 51 0 17 126 61 155 54 6 -1 34 -8 63 -16z m296 6 c3 -9 0 -15 -9 -15 -16 0 -27 14 -18 24 10 10 21 7 27 -9z m-510 -541 c9 -24 -12 -54 -39 -54 -27 0 -32 18 -15 51 13 23 45 25 54 3z"
       id="path7261"
       style="fill:#d5d5ff" />
    <path
       d="M5718 4573 c7 -3 16 -2 19 1 4 3 -2 6 -13 5 -11 0 -14 -3 -6 -6z"
       id="path7263"
       style="fill:#d5d5ff;fill-opacity:1" />
    <path
       d="M6200 4555 c-17 -20 -8 -49 16 -53 27 -4 47 21 39 48 -7 23 -37 27 -55 5z m38 -22 c-4 -22 -22 -20 -26 1 -2 10 3 16 13 16 10 0 15 -7 13 -17z"
       id="path7265"
       style="fill:#d5d5ff;fill-opacity:1" />
    <path
       d="M5947 4553 c-12 -12 -7 -25 7 -20 10 4 13 1 9 -9 -3 -7 -1 -14 5 -14 12 0 21 21 15 38 -5 13 -25 16 -36 5z"
       id="path7267"
       style="fill:#d5d5ff;fill-opacity:1" />
    <path
       d="M5906 4515 c-6 -16 2 -45 13 -45 18 0 30 24 20 42 -12 22 -25 23 -33 3z"
       id="path7269"
       style="fill:#d5d5ff;fill-opacity:1" />
    <path
       d="M5997 4503 c-12 -11 -8 -23 9 -23 8 0 13 -4 9 -9 -3 -5 -1 -12 4 -15 16 -10 23 12 11 34 -11 21 -22 25 -33 13z"
       id="path7271"
       style="fill:#d5d5ff;fill-opacity:1" />
    <path
       d="M5860 4480 c13 -9 13 -11 0 -19 -18 -12 -7 -26 15 -18 25 10 19 47 -7 47 -19 0 -20 -2 -8 -10z"
       id="path7273"
       style="fill:#d5d5ff;fill-opacity:1" />
    <path
       d="M5775 4460 c-3 -5 1 -10 9 -10 9 0 16 -4 16 -10 0 -5 -7 -10 -15 -10 -8 0 -15 -4 -15 -10 0 -12 20 -13 39 -1 8 5 11 16 6 30 -7 22 -29 28 -40 11z"
       id="path7275"
       style="fill:#d5d5ff;fill-opacity:1" />
    <path
       d="M5963 4463 c-7 -2 -13 -9 -13 -14 0 -4 7 -6 15 -3 8 4 15 1 15 -5 0 -6 -4 -11 -10 -11 -5 0 -10 -4 -10 -10 0 -12 10 -13 27 -2 7 4 10 17 6 30 -5 23 -9 24 -30 15z"
       id="path7277"
       style="fill:#d5d5ff;fill-opacity:1" />
    <path
       d="M5716 4438 c-7 -23 -3 -48 8 -48 23 0 35 16 29 38 -6 24 -31 30 -37 10z"
       id="path7279"
       style="fill:#d5d5ff;fill-opacity:1" />
    <path
       d="M6053 4443 c-7 -3 -13 -9 -13 -14 0 -6 5 -7 10 -4 6 3 10 -3 10 -15 0 -12 5 -18 10 -15 12 7 13 42 3 48 -5 2 -14 2 -20 0z"
       id="path7281"
       style="fill:#d5d5ff;fill-opacity:1" />
    <path
       d="M5893 4433 c-7 -3 -13 -9 -13 -14 0 -6 5 -7 10 -4 6 3 10 -1 10 -9 0 -9 5 -16 10 -16 6 0 10 6 10 13 0 19 -14 34 -27 30z"
       id="path7283"
       style="fill:#d5d5ff;fill-opacity:1" />
    <path
       d="M5807 4394 c-11 -11 -8 -26 3 -19 6 3 10 -1 10 -10 0 -9 -4 -13 -10 -10 -5 3 -10 1 -10 -5 0 -6 8 -10 18 -8 10 2 17 12 17 27 0 24 -15 37 -28 25z"
       id="path7287"
       style="fill:#d5d5ff;fill-opacity:1" />
    <path
       d="M5995 4390 c-3 -5 2 -10 12 -10 14 0 15 -2 4 -9 -8 -5 -9 -11 -3 -15 14 -8 25 11 18 29 -6 17 -22 20 -31 5z"
       id="path7289"
       style="fill:#d5d5ff;fill-opacity:1" />
    <path
       d="M5738 4373 c-10 -2 -18 -9 -18 -15 0 -5 7 -7 16 -4 13 5 15 2 11 -14 -3 -11 -1 -20 4 -20 5 0 9 14 9 30 0 17 -1 29 -2 29 -2 -1 -11 -3 -20 -6z"
       id="path7291"
       style="fill:#d5d5ff;fill-opacity:1" />
    <path
       d="M5907 4374 c-11 -11 -8 -26 3 -19 5 3 9 -2 7 -12 -1 -10 3 -19 8 -20 13 -4 13 49 -1 54 -5 2 -13 0 -17 -3z"
       id="path7293"
       style="fill:#d5d5ff;fill-opacity:1" />
    <path
       d="M5825 4320 c-3 -5 -1 -10 5 -10 7 0 10 -7 6 -15 -6 -16 9 -21 18 -6 7 11 -3 41 -14 41 -5 0 -12 -4 -15 -10z"
       id="path7295"
       style="fill:#d5d5ff;fill-opacity:1" />
    <path
       d="M5746 4301 c-3 -5 0 -11 6 -14 10 -3 10 -7 -1 -20 -12 -15 -11 -17 8 -17 18 0 22 5 19 27 -3 27 -22 41 -32 24z"
       id="path7297"
       style="fill:#d5d5ff;fill-opacity:1" />
    <path
       d="M5646 3944 c-37 -37 -4 -108 46 -99 51 10 64 59 26 95 -26 24 -51 26 -72 4z m68 -26 c8 -13 8 -23 0 -35 -28 -45 -89 -9 -64 38 13 24 48 22 64 -3z"
       id="path7299"
       style="fill:#d5d5ff;fill-opacity:1" />
    <path
       d="M5835 3923 c-19 -19 -16 -42 7 -57 24 -15 61 19 48 44 -14 26 -37 31 -55 13z m35 -23 c0 -11 -7 -20 -15 -20 -15 0 -21 21 -8 33 12 13 23 7 23 -13z"
       id="path7301"
       style="fill:#d5d5ff;fill-opacity:1" />
  </g>
</svg>
