<?xml version="1.0" encoding="UTF-8" standalone="no"?>
<svg
   xmlns:dc="http://purl.org/dc/elements/1.1/"
   xmlns:cc="http://creativecommons.org/ns#"
   xmlns:rdf="http://www.w3.org/1999/02/22-rdf-syntax-ns#"
   xmlns:svg="http://www.w3.org/2000/svg"
   xmlns="http://www.w3.org/2000/svg"
   xmlns:sodipodi="http://sodipodi.sourceforge.net/DTD/sodipodi-0.dtd"
   xmlns:inkscape="http://www.inkscape.org/namespaces/inkscape"
   version="1.0"
   width="1169.000000pt"
   height="847.000000pt"
   viewBox="0 0 1169.000000 847.000000"
   preserveAspectRatio="xMidYMid meet"
   id="svg7645"
   inkscape:version="0.91 r13725"
   sodipodi:docname="icoID.svg">
  <defs
     id="defs7683" />
  <sodipodi:namedview
     pagecolor="#ffffff"
     bordercolor="#666666"
     borderopacity="1"
     objecttolerance="10"
     gridtolerance="10"
     guidetolerance="10"
     inkscape:pageopacity="0"
     inkscape:pageshadow="2"
     inkscape:window-width="1301"
     inkscape:window-height="744"
     id="namedview7681"
     showgrid="false"
     inkscape:zoom="2.4311408"
     inkscape:cx="747.55336"
     inkscape:cy="536.73172"
     inkscape:window-x="65"
     inkscape:window-y="24"
     inkscape:window-maximized="1"
     inkscape:current-layer="svg7645" />
  <metadata
     id="metadata7647">
Created by potrace 1.13, written by Peter Selinger 2001-2015
<rdf:RDF>
  <cc:Work
     rdf:about="">
    <dc:format>image/svg+xml</dc:format>
    <dc:type
       rdf:resource="http://purl.org/dc/dcmitype/StillImage" />
  </cc:Work>
</rdf:RDF>
</metadata>
  <g
     transform="translate(0.000000,847.000000) scale(0.100000,-0.100000)"
     fill="#000000"
     stroke="none"
     id="g7649">
    <path
       d="M5760 4830 c-57 -10 -215 -65 -244 -84 -11 -7 -31 -23 -43 -35 -12 -12 -29 -21 -38 -21 -8 0 -15 -4 -15 -9 0 -4 -19 -37 -43 -73 -24 -35 -61 -107 -83 -159 -38 -92 -39 -96 -39 -219 0 -114 2 -132 28 -195 38 -93 122 -205 194 -258 208 -154 450 -168 678 -40 40 22 178 157 208 204 63 96 83 339 39 475 -27 83 -103 222 -135 246 -12 9 -38 30 -57 48 -99 89 -311 145 -450 120z m235 -35 c243 -64 417 -299 418 -565 0 -69 -26 -205 -42 -223 -4 -4 -18 4 -31 18 -13 14 -30 25 -38 25 -10 0 -2 -14 21 -36 34 -35 36 -38 22 -64 -15 -29 -79 -90 -95 -90 -6 0 -10 -8 -10 -18 0 -10 -10 -28 -22 -39 -34 -31 -176 -106 -191 -100 -23 9 -14 164 12 214 24 48 44 130 35 144 -3 6 -12 5 -22 -3 -13 -11 -15 -10 -9 5 20 50 20 51 -2 27 -16 -17 -21 -20 -17 -8 3 10 2 17 -2 17 -19 -3 -23 2 -12 16 22 26 1 30 -25 5 -22 -21 -29 -22 -62 -12 -27 8 -47 8 -78 0 -66 -18 -105 -2 -133 52 -13 25 -28 48 -34 51 -5 4 -8 15 -6 25 3 20 38 31 122 39 27 3 69 17 95 31 86 50 103 56 142 56 36 -1 97 -22 127 -45 10 -8 7 -13 -15 -22 l-28 -12 36 -6 c48 -10 84 -48 75 -81 -8 -32 -32 -33 -63 -4 -41 38 -39 9 2 -31 22 -21 53 -53 68 -70 16 -17 35 -31 44 -31 10 0 0 15 -26 40 -46 45 -52 63 -18 55 l24 -6 -4 208 c-2 114 -6 209 -9 212 -12 12 -18 -17 -20 -94 -1 -46 -5 -89 -8 -94 -3 -5 0 -12 6 -15 10 -5 10 -7 1 -12 -7 -3 -13 -10 -13 -15 0 -4 6 -6 13 -4 8 4 13 -8 15 -35 1 -22 -2 -40 -7 -40 -22 0 -31 45 -33 167 l-2 128 -3 -112 c-5 -154 -23 -146 -23 10 -1 109 -2 120 -15 103 -19 -26 -21 -172 -2 -179 9 -4 9 -8 -2 -15 -8 -6 -21 -7 -30 -2 -9 5 -24 11 -33 14 -15 4 -18 18 -19 78 0 40 -4 82 -9 93 -6 13 -8 -12 -7 -70 2 -68 -1 -89 -11 -87 -7 1 -30 -2 -52 -7 l-40 -9 -1 77 c-2 94 -2 95 -14 98 -6 2 -9 -34 -6 -97 2 -69 0 -100 -8 -100 -7 0 -11 21 -11 53 0 81 -12 157 -24 157 -13 0 -10 -145 4 -198 7 -27 5 -34 -11 -43 -36 -19 -43 -6 -44 82 -3 141 -5 160 -13 155 -5 -3 -8 -63 -6 -133 2 -82 0 -119 -5 -103 -5 14 -10 54 -11 90 0 36 -5 83 -9 105 -8 37 -9 35 -11 -30 -1 -51 -4 -63 -10 -45 -4 14 -8 44 -9 67 -1 23 -5 44 -10 48 -6 3 -9 -52 -7 -135 2 -109 -1 -140 -11 -140 -14 0 -16 19 -13 145 1 44 -2 90 -7 102 -5 13 -8 -29 -9 -108 0 -85 -5 -134 -12 -141 -9 -9 -12 -7 -13 8 -8 224 -11 249 -25 257 -8 4 -14 15 -14 22 0 19 -8 19 -25 1 -10 -9 -15 -56 -19 -162 -3 -88 -2 -137 3 -119 5 17 9 71 10 120 1 50 6 97 12 105 8 11 9 -20 6 -108 -3 -74 -1 -120 4 -116 5 3 9 15 8 27 -1 12 -1 65 1 117 4 140 17 57 16 -102 -1 -110 1 -127 16 -137 10 -6 18 -20 18 -31 0 -10 11 -31 24 -47 25 -29 43 -31 156 -24 19 1 57 -2 85 -6 38 -6 52 -14 62 -33 17 -33 16 -99 -1 -141 -7 -19 -16 -74 -19 -123 -4 -49 -11 -94 -17 -100 -6 -6 -61 -10 -133 -11 -148 0 -219 20 -324 94 -161 113 -244 260 -249 441 -3 113 9 164 69 293 47 100 105 173 170 214 45 28 202 83 267 93 57 8 150 2 215 -15z m162 -352 c-3 -10 -5 -4 -5 12 0 17 2 24 5 18 2 -7 2 -21 0 -30z m-369 -116 c2 -28 -1 -37 -12 -37 -12 0 -16 11 -16 41 0 52 24 48 28 -4z"
       id="path7655"
       style="fill:#800000" />
    <path
       d="M5550 4468 c0 -57 -5 -110 -10 -118 -8 -12 -10 -8 -11 15 -1 17 -1 33 0 38 0 4 -4 7 -10 7 -6 0 -9 -23 -8 -62 1 -35 -1 -107 -6 -160 -5 -63 -4 -98 2 -98 5 0 11 26 12 58 1 31 4 66 6 77 2 11 4 29 4 40 1 16 3 17 11 5 15 -23 18 1 22 144 3 89 8 131 16 134 19 6 14 22 -8 22 -19 0 -20 -7 -20 -102z"
       id="path7657"
       style="fill:#800000;fill-opacity:1" />
    <path
       d="M5970 4485 c0 -79 10 -107 24 -69 3 8 10 12 16 9 6 -4 10 18 10 60 0 44 -4 64 -11 60 -6 -4 -8 -14 -5 -22 3 -8 1 -11 -4 -8 -6 3 -10 17 -10 31 0 13 -4 24 -10 24 -6 0 -10 -35 -10 -85z"
       id="path7659"
       style="fill:#800000;fill-opacity:1" />
    <path
       d="M5470 4388 c0 -95 -3 -197 -7 -227 -4 -42 -3 -53 8 -49 17 6 28 448 10 448 -8 0 -11 -52 -11 -172z"
       id="path7661"
       style="fill:#800000;fill-opacity:1" />
    <path
       d="M6101 4478 c0 -49 3 -88 7 -88 4 0 6 33 4 73 -5 107 -10 114 -11 15z"
       id="path7663"
       style="fill:#800000;fill-opacity:1" />
    <path
       d="M5853 4515 c0 -22 2 -30 4 -17 2 12 2 30 0 40 -3 9 -5 -1 -4 -23z"
       id="path7665"
       style="fill:#800000;fill-opacity:1" />
    <path
       d="M5513 4475 c0 -22 2 -30 4 -17 2 12 2 30 0 40 -3 9 -5 -1 -4 -23z"
       id="path7667"
       style="fill:#800000;fill-opacity:1" />
    <path
       d="M5543 4174 c-8 -23 20 -47 46 -39 23 7 27 25 9 43 -17 17 -48 15 -55 -4z m47 -14 c0 -5 -4 -10 -9 -10 -6 0 -13 5 -16 10 -3 6 1 10 9 10 9 0 16 -4 16 -10z"
       id="path7669"
       style="fill:#800000;fill-opacity:1" />
    <path
       d="M5626 4163 c-4 -9 -2 -21 4 -27 7 -7 10 -2 10 17 0 31 -5 34 -14 10z"
       id="path7671"
       style="fill:#800000;fill-opacity:1" />
  </g>
</svg>
