<?xml version="1.0" encoding="UTF-8" standalone="no"?>
<svg
   xmlns:dc="http://purl.org/dc/elements/1.1/"
   xmlns:cc="http://creativecommons.org/ns#"
   xmlns:rdf="http://www.w3.org/1999/02/22-rdf-syntax-ns#"
   xmlns:svg="http://www.w3.org/2000/svg"
   xmlns="http://www.w3.org/2000/svg"
   xmlns:sodipodi="http://sodipodi.sourceforge.net/DTD/sodipodi-0.dtd"
   xmlns:inkscape="http://www.inkscape.org/namespaces/inkscape"
   version="1.0"
   width="117.82388pt"
   height="118.38673pt"
   viewBox="0 0 117.82388 118.38673"
   preserveAspectRatio="xMidYMid meet"
   id="svg8038"
   inkscape:version="0.91 r13725"
   sodipodi:docname="icoMed.svg">
  <defs
     id="defs8088" />
  <sodipodi:namedview
     pagecolor="#ffffff"
     bordercolor="#666666"
     borderopacity="1"
     objecttolerance="10"
     gridtolerance="10"
     guidetolerance="10"
     inkscape:pageopacity="0"
     inkscape:pageshadow="2"
     inkscape:window-width="1040"
     inkscape:window-height="586"
     id="namedview8086"
     showgrid="false"
     inkscape:zoom="2.4311408"
     inkscape:cx="66.619172"
     inkscape:cy="77.311178"
     inkscape:window-x="74"
     inkscape:window-y="35"
     inkscape:window-maximized="0"
     inkscape:current-layer="svg8038"
     fit-margin-top="0"
     fit-margin-left="0"
     fit-margin-right="0"
     fit-margin-bottom="0" />
  <metadata
     id="metadata8040">
Created by potrace 1.13, written by Peter Selinger 2001-2015
<rdf:RDF>
  <cc:Work
     rdf:about="">
    <dc:format>image/svg+xml</dc:format>
    <dc:type
       rdf:resource="http://purl.org/dc/dcmitype/StillImage" />
    <dc:title></dc:title>
  </cc:Work>
</rdf:RDF>
</metadata>
  <g
     transform="matrix(0.1,0,0,-0.1,-524.99835,483.89171)"
     id="g8042"
     style="fill:#000000;stroke:none">
    <path
       d="m 5776,4833 c -93,-24 -223,-77 -278,-114 -74,-50 -158,-153 -211,-259 -29,-59 -32,-74 -36,-181 -3,-109 -1,-122 29,-210 44,-131 95,-213 172,-277 143,-121 281,-158 470,-126 83,14 112,23 206,65 47,22 180,132 190,158 3,9 16,30 28,46 19,25 64,124 64,141 0,3 -4,2 -10,-1 -5,-3 -10,-13 -10,-22 0,-31 -69,-149 -108,-185 -66,-61 -116,-100 -154,-121 -173,-96 -425,-101 -577,-12 -66,39 -179,153 -209,211 -96,188 -106,395 -26,540 80,147 181,231 354,297 83,32 106,37 180,37 101,0 193,-20 223,-48 21,-19 67,-39 67,-29 0,3 -21,18 -47,35 -72,45 -241,74 -317,55 z"
       id="path8052"
       style="fill:#ff0000"
       inkscape:connector-curvature="0" />
    <path
       d="m 6155,4730 c 3,-5 12,-10 18,-10 7,0 35,-21 62,-45 28,-25 53,-45 56,-45 3,0 26,-42 52,-92 62,-122 81,-210 74,-348 -5,-82 -4,-96 4,-65 15,56 5,239 -15,305 -25,81 -72,172 -109,211 -45,49 -162,122 -142,89 z"
       id="path8056"
       style="fill:#ff0000"
       inkscape:connector-curvature="0" />
    <path
       d="m 5598,4621 c -80,-17 -156,-98 -177,-190 -30,-134 98,-260 242,-237 23,4 47,8 53,8 25,3 130,86 143,113 8,17 16,51 19,77 4,41 1,50 -24,73 -25,23 -26,27 -12,41 14,15 14,19 -1,45 -28,51 -157,88 -243,70 z m 102,-21 c -8,-5 -27,-10 -42,-10 -16,0 -28,-4 -28,-9 0,-5 -10,-13 -22,-16 -27,-9 -68,-44 -68,-59 0,-6 11,1 25,16 14,15 44,32 68,39 23,6 49,14 57,17 8,4 36,6 63,4 37,-2 51,-8 63,-28 22,-32 12,-42 -80,-85 -42,-19 -76,-38 -76,-42 0,-4 8,-4 18,1 90,45 116,54 130,45 31,-19 21,-29 -69,-73 -122,-60 -124,-71 -2,-14 54,25 103,46 108,47 17,3 18,-86 1,-108 -10,-13 -15,-15 -16,-6 0,8 -17,-2 -40,-23 -22,-20 -46,-36 -53,-37 -24,-1 -52,-6 -77,-13 -20,-6 -34,0 -63,22 l -36,29 34,19 c 44,24 38,30 -10,10 -46,-20 -79,-20 -94,-2 -9,11 -8,15 6,21 36,15 83,17 83,4 0,-7 3,-9 6,-6 4,4 1,13 -6,22 -8,10 -9,15 -1,15 6,0 25,9 43,20 l 33,20 -35,-6 c -19,-4 -45,-13 -57,-20 -31,-19 -42,-18 -53,9 -5,13 -9,16 -9,7 -1,-9 4,-21 11,-28 9,-9 9,-12 0,-12 -26,0 -34,60 -15,108 17,44 71,112 97,122 31,13 125,12 106,0 z m -169,-38 c -12,-22 -41,-48 -41,-36 0,8 40,54 47,54 2,0 -1,-8 -6,-18 z m -41,-61 c 0,-12 -20,-25 -27,-18 -7,7 6,27 18,27 5,0 9,-4 9,-9 z m -20,-46 c 0,-8 -2,-15 -4,-15 -2,0 -6,7 -10,15 -3,8 -1,15 4,15 6,0 10,-7 10,-15 z m -11,-57 c 1,-18 3,-43 4,-55 2,-27 32,-63 51,-63 22,0 86,-46 78,-55 -4,-5 1,-5 10,-2 10,4 28,2 40,-3 20,-8 19,-9 -12,-9 -63,0 -122,31 -157,84 -31,45 -45,110 -26,128 10,10 10,10 12,-25 z m 254,-165 c -7,-2 -21,-2 -30,0 -10,3 -4,5 12,5 17,0 24,-2 18,-5 z"
       id="path8058"
       style="fill:#ff0000"
       inkscape:connector-curvature="0" />
    <path
       d="m 6140,4353 c -14,-3 -50,-28 -80,-57 -30,-28 -72,-65 -92,-80 -21,-16 -38,-33 -38,-40 0,-6 -25,-40 -57,-76 -70,-81 -93,-118 -93,-151 0,-34 31,-72 75,-93 34,-16 38,-16 81,0 24,9 48,22 52,28 4,6 32,31 62,56 112,90 210,206 225,268 15,59 4,95 -38,121 -39,23 -64,29 -97,24 z m 55,-23 c 3,-5 15,-10 25,-10 28,0 52,-42 44,-75 -5,-20 -9,-23 -15,-13 -7,10 -9,9 -9,-4 0,-9 5,-18 11,-20 17,-6 -7,-48 -26,-48 -18,0 -20,46 -2,53 6,2 0,4 -14,3 -18,-1 -25,-5 -21,-15 4,-10 1,-12 -8,-6 -9,5 -11,4 -6,-4 4,-6 12,-9 17,-6 5,4 9,-3 9,-14 0,-11 5,-23 10,-26 14,-9 -7,-35 -26,-35 -8,0 -14,-6 -14,-12 -1,-7 -16,-31 -35,-53 -29,-34 -35,-37 -35,-19 0,35 -55,101 -94,114 -42,14 -49,35 -9,27 25,-5 26,-4 10,8 -24,17 -6,28 25,16 20,-7 25,-6 25,6 0,9 -9,18 -19,21 -27,7 -17,26 18,33 16,4 23,7 16,8 -20,2 17,51 39,51 11,0 19,4 19,9 0,9 20,17 47,20 6,0 15,-3 18,-9 z m -147,-249 c 50,-62 50,-76 0,-124 -99,-95 -133,-109 -194,-80 -29,13 -42,28 -50,53 -16,47 7,90 80,157 54,50 56,51 95,41 26,-7 49,-22 69,-47 z"
       id="path8062"
       style="fill:#ff0000"
       inkscape:connector-curvature="0" />
    <path
       d="m 6105,4270 c -3,-5 -2,-10 4,-10 5,0 13,5 16,10 3,6 2,10 -4,10 -5,0 -13,-4 -16,-10 z"
       id="path8064"
       style="fill:#ff0000"
       inkscape:connector-curvature="0" />
    <path
       d="m 6040,4236 c 0,-2 11,-6 25,-8 13,-3 22,-1 19,3 -5,9 -44,13 -44,5 z"
       id="path8066"
       style="fill:#ff0000"
       inkscape:connector-curvature="0" />
    <path
       d="m 6076,4181 c -3,-5 2,-15 12,-22 15,-12 16,-12 5,2 -7,9 -10,19 -6,22 3,4 4,7 0,7 -3,0 -8,-4 -11,-9 z"
       id="path8068"
       style="fill:#ff0000"
       inkscape:connector-curvature="0" />
    <path
       d="m 6060,4131 c 0,-6 4,-13 10,-16 6,-3 7,1 4,9 -7,18 -14,21 -14,7 z"
       id="path8070"
       style="fill:#ff0000"
       inkscape:connector-curvature="0" />
    <path
       d="m 6110,4136 c 0,-2 8,-10 18,-17 15,-13 16,-12 3,4 -13,16 -21,21 -21,13 z"
       id="path8072"
       style="fill:#ff0000"
       inkscape:connector-curvature="0" />
  </g>
</svg>
