<?xml version="1.0" encoding="UTF-8" standalone="no"?>
<svg
   xmlns:dc="http://purl.org/dc/elements/1.1/"
   xmlns:cc="http://creativecommons.org/ns#"
   xmlns:rdf="http://www.w3.org/1999/02/22-rdf-syntax-ns#"
   xmlns:svg="http://www.w3.org/2000/svg"
   xmlns="http://www.w3.org/2000/svg"
   xmlns:sodipodi="http://sodipodi.sourceforge.net/DTD/sodipodi-0.dtd"
   xmlns:inkscape="http://www.inkscape.org/namespaces/inkscape"
   version="1.0"
   width="1169.000000pt"
   height="847.000000pt"
   viewBox="0 0 1169.000000 847.000000"
   preserveAspectRatio="xMidYMid meet"
   id="svg8754"
   inkscape:version="0.91 r13725"
   sodipodi:docname="icoParaz.svg">
  <defs
     id="defs8798" />
  <sodipodi:namedview
     pagecolor="#ffffff"
     bordercolor="#666666"
     borderopacity="1"
     objecttolerance="10"
     gridtolerance="10"
     guidetolerance="10"
     inkscape:pageopacity="0"
     inkscape:pageshadow="2"
     inkscape:window-width="1301"
     inkscape:window-height="744"
     id="namedview8796"
     showgrid="false"
     inkscape:zoom="2.4311408"
     inkscape:cx="778.46369"
     inkscape:cy="530.31723"
     inkscape:window-x="65"
     inkscape:window-y="24"
     inkscape:window-maximized="1"
     inkscape:current-layer="svg8754" />
  <metadata
     id="metadata8756">
Created by potrace 1.13, written by Peter Selinger 2001-2015
<rdf:RDF>
  <cc:Work
     rdf:about="">
    <dc:format>image/svg+xml</dc:format>
    <dc:type
       rdf:resource="http://purl.org/dc/dcmitype/StillImage" />
  </cc:Work>
</rdf:RDF>
</metadata>
  <g
     transform="translate(0.000000,847.000000) scale(0.100000,-0.100000)"
     fill="#000000"
     stroke="none"
     id="g8758">
    <path
       d="M5670 4811 c-41 -14 -84 -32 -95 -38 -37 -23 -3 -14 70 18 53 23 137 37 210 34 50 -2 72 0 60 5 -44 19 -168 9 -245 -19z"
       id="path8766"
       style="fill:#916f6f;fill-opacity:1" />
    <path
       d="M5950 4817 c0 -3 28 -15 63 -26 34 -12 82 -33 106 -46 24 -14 46 -23 49 -20 7 7 9 5 -83 47 -79 37 -135 55 -135 45z"
       id="path8768"
       style="fill:#916f6f;fill-opacity:1" />
    <path
       d="M5770 4790 c-13 -8 -12 -10 2 -10 25 0 68 -40 68 -62 0 -23 -18 -58 -29 -58 -5 0 -11 13 -14 29 -4 20 -16 33 -36 42 -23 10 -27 16 -19 26 6 8 8 16 5 20 -5 5 -126 -69 -161 -98 -13 -11 -24 -86 -15 -101 6 -8 9 -1 9 20 0 26 5 35 20 39 16 4 18 8 9 20 -9 11 -8 17 7 28 23 17 30 18 55 4 18 -9 19 -9 7 11 -11 17 -11 22 2 31 17 11 67 4 87 -12 15 -13 18 -49 3 -49 -5 0 -10 -9 -10 -20 0 -27 -10 -25 -37 8 -12 15 -22 21 -23 15 0 -7 5 -13 10 -13 6 0 10 -16 10 -35 0 -42 -8 -44 -40 -10 -13 14 -28 25 -34 25 -6 0 -1 -8 11 -18 20 -16 27 -32 24 -58 -1 -7 -19 -9 -51 -6 -48 4 -50 4 -50 -21 0 -59 58 -127 108 -127 38 0 56 78 27 116 -21 28 -19 36 27 82 43 44 76 53 102 27 8 -8 19 -15 25 -15 5 0 13 -9 16 -20 3 -11 11 -20 16 -20 5 0 9 -10 9 -23 0 -13 5 -28 12 -35 9 -9 9 -12 -2 -12 -7 0 -10 -3 -7 -6 10 -10 -29 -54 -64 -73 -22 -12 -38 -34 -56 -75 -21 -51 -24 -70 -19 -133 2 -41 10 -81 17 -89 37 -45 109 19 109 97 0 24 -4 51 -10 59 -9 15 -8 17 64 90 62 64 84 109 91 185 6 58 4 73 -9 84 -9 7 -16 21 -16 30 0 21 -36 61 -54 61 -7 0 -31 9 -54 20 -22 11 -52 20 -66 20 -14 0 -28 5 -31 10 -8 13 -26 13 -45 0z m95 -30 c3 -5 13 -10 22 -10 9 0 22 -8 29 -17 9 -12 13 -14 14 -5 0 23 20 2 20 -22 0 -31 -20 -54 -54 -62 -26 -6 -28 -5 -21 17 7 22 6 23 -9 10 -16 -13 -17 -12 -11 11 4 16 0 38 -9 57 -14 27 -14 31 -2 31 8 0 18 -4 21 -10z m115 -80 c0 -11 5 -20 10 -20 20 0 9 -29 -21 -54 -35 -30 -39 -31 -64 -12 -18 13 -17 15 18 48 20 20 37 40 37 47 0 6 5 11 10 11 6 0 10 -9 10 -20z m51 -104 c-12 -29 -39 -46 -75 -46 -50 0 -41 29 17 53 20 9 40 24 44 33 5 14 7 14 15 1 4 -9 4 -26 -1 -41z m-355 -41 c16 -8 23 -15 17 -15 -7 0 -13 -5 -13 -11 0 -6 6 -9 14 -6 12 5 13 -2 9 -31 -7 -49 -15 -55 -47 -41 -25 12 -66 79 -66 108 0 16 53 13 86 -4z m349 -32 c-8 -34 -21 -43 -62 -43 -56 0 -50 35 9 57 53 19 61 17 53 -14z m-59 -65 c10 -10 -6 -48 -21 -48 -20 0 -59 35 -52 47 7 11 62 12 73 1z m-74 -35 c19 -17 25 -63 8 -63 -18 0 -60 31 -60 44 0 12 19 36 29 36 2 0 13 -7 23 -17z m-39 -84 c-4 -4 -21 -5 -36 -1 -26 7 -27 8 -11 30 l16 23 20 -21 c12 -13 17 -25 11 -31z m11 -28 c3 -5 -10 -11 -29 -13 -24 -3 -35 0 -35 9 0 15 56 18 64 4z m10 -43 c23 -33 19 -40 -13 -24 -21 11 -31 12 -39 4 -17 -17 -25 -3 -12 21 14 27 45 27 64 -1z m-6 -61 c3 -22 -2 -29 -24 -37 -31 -12 -42 -5 -46 29 -2 19 3 26 22 32 36 10 45 6 48 -24z"
       id="path8770"
       style="fill:#916f6f" />
    <path
       d="M5880 4731 c0 -6 4 -13 10 -16 6 -3 7 1 4 9 -7 18 -14 21 -14 7z"
       id="path8772" />
    <path
       d="M5490 4730 c-8 -5 -10 -10 -5 -10 6 0 17 5 25 10 8 5 11 10 5 10 -5 0 -17 -5 -25 -10z"
       id="path8776"
       style="fill:#916f6f;fill-opacity:1" />
    <path
       d="M6213 4687 c20 -19 37 -39 37 -45 0 -5 4 -12 8 -14 12 -5 92 -108 92 -119 0 -6 9 -31 21 -56 11 -25 26 -85 32 -133 9 -75 8 -100 -7 -172 -32 -151 -60 -212 -145 -308 -80 -90 -250 -167 -381 -172 -70 -2 -185 10 -210 22 -8 4 -38 18 -66 30 -29 12 -63 32 -77 44 -14 11 -48 39 -77 61 -101 79 -149 157 -170 280 -7 39 -17 76 -23 83 -14 18 0 170 23 228 21 56 116 215 134 226 25 14 80 68 70 68 -20 0 -105 -84 -140 -137 -65 -101 -96 -182 -106 -273 -10 -97 -7 -122 31 -240 37 -113 50 -137 108 -196 116 -118 251 -189 388 -205 145 -16 234 1 374 72 128 64 234 195 259 319 8 36 18 78 23 94 28 88 -4 315 -55 390 -59 87 -150 186 -170 186 -6 0 6 -15 27 -33z"
       id="path8778"
       style="fill:#916f6f;fill-opacity:1" />
    <path
       d="M5655 4140 c-8 -13 3 -50 16 -50 5 0 9 -6 9 -13 0 -8 11 -24 25 -37 14 -13 25 -32 25 -42 0 -15 -9 -18 -47 -20 -27 -1 -59 -2 -72 -3 -22 -1 -44 -24 -24 -25 97 -6 119 -12 140 -38 28 -34 25 -46 -15 -50 -18 -2 -30 -7 -27 -13 3 -5 0 -6 -7 -4 -13 5 -52 -47 -42 -57 2 -3 20 9 39 27 34 30 98 59 109 48 3 -3 3 -32 -1 -64 -4 -41 -2 -59 6 -59 6 0 11 7 11 16 0 9 7 14 18 12 9 -2 16 -11 16 -21 -2 -19 11 -23 21 -6 4 6 9 36 11 66 2 31 6 59 9 61 3 3 18 -6 33 -20 15 -14 36 -28 46 -30 13 -2 23 -16 29 -38 5 -19 12 -29 14 -23 7 19 -16 81 -35 96 -41 30 -54 54 -42 77 10 18 18 21 44 16 34 -7 96 10 96 25 0 6 -9 5 -21 -2 -15 -8 -24 -8 -32 0 -17 17 -27 13 -20 -6 5 -15 3 -15 -9 1 -9 11 -22 17 -31 13 -10 -4 -17 1 -20 14 -4 15 3 26 28 40 18 11 40 31 49 44 18 27 21 65 6 65 -5 0 -10 -9 -10 -20 0 -13 -14 -27 -41 -41 l-41 -20 -22 20 c-23 22 -96 30 -96 11 0 -5 -7 -10 -15 -10 -8 0 -15 -4 -15 -10 0 -5 -9 -10 -21 -10 -11 0 -17 -4 -14 -10 3 -5 2 -10 -4 -10 -16 0 -22 18 -9 23 17 5 -8 37 -28 37 -8 0 -14 9 -14 19 0 23 -16 36 -25 21z m215 -101 c22 -23 36 -47 33 -55 -6 -17 -23 -8 -23 12 0 8 -8 18 -17 21 -24 9 -43 29 -36 37 4 3 -2 6 -13 6 -16 0 -17 2 -4 10 20 13 16 15 60 -31z m-66 5 c21 -21 20 -57 -3 -85 -16 -20 -21 -21 -35 -10 -14 11 -16 11 -16 -3 0 -10 -5 -14 -11 -10 -8 4 -8 9 0 17 6 6 11 24 11 40 0 31 16 67 30 67 5 0 16 -7 24 -16z m136 -4 c0 -5 -4 -10 -10 -10 -5 0 -10 5 -10 10 0 6 5 10 10 10 6 0 10 -4 10 -10z m-80 -70 c5 -34 -1 -70 -11 -70 -6 0 -8 8 -4 20 3 10 2 27 -3 37 -11 20 -4 49 8 36 5 -4 9 -15 10 -23z m15 -79 c-17 -15 -17 -15 -11 2 3 10 6 26 6 35 1 15 2 15 11 -2 9 -14 7 -22 -6 -35z m-95 29 c0 -7 8 -7 23 1 22 12 22 12 3 -10 -13 -15 -22 -18 -27 -10 -4 6 -12 8 -18 5 -12 -8 -15 6 -4 17 10 10 23 8 23 -3z m41 -43 c-16 -16 -26 0 -10 19 9 11 15 12 17 4 2 -6 -1 -17 -7 -23z m99 8 c7 -9 10 -18 7 -22 -8 -7 -37 15 -37 28 0 14 16 11 30 -6z m-60 -75 c0 -5 -7 -10 -15 -10 -8 0 -15 5 -15 10 0 6 7 10 15 10 8 0 15 -4 15 -10z"
       id="path8782"
       style="fill:#916f6f;fill-opacity:1" />
  </g>
</svg>
