<?xml version="1.0" encoding="UTF-8" standalone="no"?>
<svg
   xmlns:dc="http://purl.org/dc/elements/1.1/"
   xmlns:cc="http://creativecommons.org/ns#"
   xmlns:rdf="http://www.w3.org/1999/02/22-rdf-syntax-ns#"
   xmlns:svg="http://www.w3.org/2000/svg"
   xmlns="http://www.w3.org/2000/svg"
   xmlns:sodipodi="http://sodipodi.sourceforge.net/DTD/sodipodi-0.dtd"
   xmlns:inkscape="http://www.inkscape.org/namespaces/inkscape"
   version="1.0"
   width="1169.000000pt"
   height="847.000000pt"
   viewBox="0 0 1169.000000 847.000000"
   preserveAspectRatio="xMidYMid meet"
   id="svg9206"
   inkscape:version="0.91 r13725"
   sodipodi:docname="icoSteril.svg">
  <defs
     id="defs9264" />
  <sodipodi:namedview
     pagecolor="#ffffff"
     bordercolor="#666666"
     borderopacity="1"
     objecttolerance="10"
     gridtolerance="10"
     guidetolerance="10"
     inkscape:pageopacity="0"
     inkscape:pageshadow="2"
     inkscape:window-width="1301"
     inkscape:window-height="744"
     id="namedview9262"
     showgrid="false"
     inkscape:zoom="3.4381523"
     inkscape:cx="717.33499"
     inkscape:cy="528.60707"
     inkscape:window-x="65"
     inkscape:window-y="24"
     inkscape:window-maximized="1"
     inkscape:current-layer="svg9206" />
  <metadata
     id="metadata9208">
Created by potrace 1.13, written by Peter Selinger 2001-2015
<rdf:RDF>
  <cc:Work
     rdf:about="">
    <dc:format>image/svg+xml</dc:format>
    <dc:type
       rdf:resource="http://purl.org/dc/dcmitype/StillImage" />
  </cc:Work>
</rdf:RDF>
</metadata>
  <g
     transform="translate(0.000000,847.000000) scale(0.100000,-0.100000)"
     fill="#000000"
     stroke="none"
     id="g9210">
    <path
       d="M5723 4809 c-41 -8 -73 -20 -153 -57 -103 -48 -244 -226 -293 -372 -22 -65 -25 -88 -22 -175 2 -65 10 -121 23 -160 63 -186 73 -200 246 -335 76 -59 260 -96 393 -80 89 11 249 73 305 118 9 8 22 11 29 6 7 -4 10 -3 6 3 -6 9 17 45 53 83 24 24 76 113 99 166 24 54 51 185 46 218 -2 11 -6 43 -10 70 -22 160 -120 327 -235 403 -110 72 -215 110 -322 116 -84 4 -61 -10 29 -17 66 -6 95 -15 188 -61 68 -33 126 -70 152 -95 86 -85 161 -227 171 -324 5 -46 4 -48 -17 -41 -29 9 -26 -9 4 -23 24 -11 31 -34 20 -64 -4 -10 -16 -5 -44 21 -35 33 -37 37 -22 49 14 13 14 13 -4 10 -31 -5 -30 -34 4 -54 43 -25 56 -82 26 -113 -12 -13 -15 -12 -21 5 -4 10 -23 36 -43 57 -35 37 -36 38 -36 130 -2 113 -7 131 -46 147 -42 18 -53 43 -34 79 16 33 20 65 6 57 -4 -3 -11 -19 -14 -36 -4 -16 -11 -30 -17 -30 -15 0 -12 42 5 64 19 26 19 72 0 80 -8 3 -15 1 -15 -3 0 -5 -17 -16 -37 -24 -26 -11 -31 -16 -17 -16 11 -1 25 4 31 10 6 6 18 9 27 7 15 -3 14 -9 -8 -52 -24 -47 -24 -49 -7 -79 9 -17 37 -45 62 -62 l44 -32 3 -84 c3 -110 6 -123 46 -167 18 -20 37 -52 41 -69 8 -40 18 -42 34 -7 6 15 14 24 17 21 7 -7 -13 -70 -38 -119 l-18 -38 -121 0 c-107 0 -120 2 -109 15 7 8 27 15 46 15 38 0 50 12 30 29 -30 25 -36 67 -15 107 22 44 24 53 8 37 -9 -9 -18 -4 -37 18 -21 26 -23 34 -14 55 7 13 8 24 3 24 -23 0 -91 -204 -91 -272 0 -23 -4 -28 -25 -28 -31 0 -31 2 1 80 25 61 43 207 47 379 2 52 -18 71 -75 71 -56 0 -59 22 -12 71 21 21 53 44 71 50 18 6 33 15 33 20 0 17 -69 -19 -120 -63 -63 -54 -64 -79 -2 -92 23 -6 42 -12 42 -15 0 -3 -41 -46 -90 -96 l-89 -90 -49 48 c-26 26 -53 47 -59 47 -6 0 -14 12 -17 26 -7 27 -28 54 -43 54 -4 0 -46 36 -92 80 -47 44 -86 80 -87 80 -2 0 -1 -17 1 -37 4 -49 21 -92 38 -99 10 -3 13 -25 12 -76 -1 -67 -3 -72 -36 -100 l-34 -29 32 16 c37 17 68 59 58 75 -4 6 -4 36 0 66 l7 55 23 -15 c14 -9 32 -16 41 -16 26 0 74 -59 74 -90 0 -38 -18 -83 -30 -75 -19 12 -50 -16 -61 -58 -18 -66 -13 -152 13 -205 12 -26 22 -52 21 -59 -1 -17 33 -26 53 -15 13 7 11 13 -17 36 l-32 27 69 70 c46 46 76 69 92 69 13 0 32 4 42 10 15 8 24 3 49 -25 35 -41 46 -43 54 -13 4 12 9 19 13 15 4 -4 17 -1 29 7 12 8 27 11 34 7 9 -6 7 -10 -8 -14 -23 -6 -28 -36 -10 -54 8 -8 -1 -23 -35 -56 -25 -25 -46 -50 -46 -56 0 -5 -21 -12 -47 -14 -41 -3 -39 -4 17 -5 l66 -2 74 -76 c74 -76 110 -103 110 -85 0 5 -35 41 -77 80 -60 55 -73 71 -57 71 13 0 39 -19 64 -47 24 -27 47 -47 52 -46 4 2 8 -3 8 -11 0 -8 11 -23 25 -34 28 -22 33 -37 10 -28 -9 3 -15 0 -15 -7 0 -17 -64 -53 -115 -66 -22 -5 -60 -17 -85 -26 -97 -36 -343 -2 -406 56 -11 10 -25 19 -31 19 -6 0 -16 7 -23 15 -9 11 -4 19 29 42 22 15 40 31 41 35 0 4 -20 -7 -45 -24 -35 -25 -48 -29 -57 -20 -9 9 -4 19 22 43 l35 31 -38 -27 c-46 -32 -60 -28 -19 7 16 13 29 32 29 41 0 19 6 21 -71 -29 -14 -9 -27 -11 -30 -6 -3 6 9 19 27 31 36 23 26 28 -13 6 -37 -21 -49 -18 -20 6 21 17 22 19 3 10 -26 -13 -33 -14 -33 -3 0 5 15 16 33 25 28 14 29 16 10 16 -13 1 -23 -3 -23 -8 0 -5 -6 -11 -14 -14 -10 -4 -23 11 -41 44 -14 27 -23 53 -21 58 3 4 -2 21 -11 37 -19 33 -20 151 -3 184 12 22 106 100 121 100 23 0 5 -23 -41 -51 -41 -25 -52 -38 -61 -72 -13 -48 -6 -141 12 -163 15 -19 36 -3 44 36 3 15 22 54 41 87 23 40 27 49 10 29 -14 -16 -37 -54 -52 -83 -32 -63 -44 -58 -46 18 -2 69 14 106 54 127 43 23 80 60 73 72 -12 19 -63 10 -97 -17 -18 -16 -41 -35 -51 -43 -11 -8 -23 -24 -28 -35 -20 -42 0 95 22 157 48 132 175 298 264 343 35 18 138 53 178 60 20 4 39 11 42 14 5 9 -8 9 -62 0z m-170 -289 c32 -36 32 -36 6 -43 -16 -4 -24 1 -35 28 -8 19 -14 37 -14 40 0 13 19 2 43 -25z m515 -106 c1 -12 -29 -52 -87 -114 -87 -94 -89 -95 -109 -77 -20 19 -20 19 76 118 52 55 101 98 106 96 6 -2 12 -12 14 -23z m-277 -126 c24 -29 43 -59 41 -66 -2 -8 -1 -21 2 -29 5 -13 9 -13 22 -2 13 11 22 6 57 -29 28 -28 38 -45 31 -52 -7 -7 -21 1 -44 25 -19 19 -38 35 -44 35 -5 0 -37 23 -70 52 -55 47 -57 48 -22 10 l40 -42 -23 -24 c-18 -19 -33 -25 -65 -23 -22 0 -48 -2 -57 -7 -14 -6 -18 0 -21 41 -6 63 -1 73 32 73 33 0 45 13 55 58 3 17 10 32 14 32 4 0 28 -24 52 -52z m252 -10 c-6 -106 -11 -124 -39 -136 -36 -17 -46 -14 -73 19 l-24 30 26 27 c79 84 97 104 97 113 0 5 4 9 8 9 5 0 7 -28 5 -62z m-223 -115 c0 -5 -12 -13 -26 -20 -26 -12 -26 -12 -9 7 18 20 35 26 35 13z m336 -74 c7 -40 18 -77 24 -83 16 -16 11 -28 -10 -21 -21 7 -75 -17 -83 -37 -3 -7 -6 -3 -6 10 -1 13 5 22 14 22 21 0 48 46 42 73 -3 12 -11 36 -18 54 -10 26 -10 34 1 47 7 9 15 14 17 12 3 -3 11 -37 19 -77z m-418 27 c24 -13 24 -13 -29 -59 -30 -26 -57 -47 -61 -47 -4 0 -10 10 -14 22 -5 16 0 27 20 45 26 22 46 23 46 3 0 -4 -15 -17 -32 -29 -18 -11 -27 -21 -20 -21 20 0 82 50 82 66 0 19 -50 18 -76 -1 -29 -20 -38 -7 -11 16 26 21 63 24 95 5z m302 -38 c0 -16 -3 -19 -11 -11 -6 6 -8 16 -5 22 11 17 16 13 16 -11z m83 -10 c6 -22 5 -22 -8 -4 -17 22 -20 40 -6 32 5 -3 11 -16 14 -28z m-26 -20 c-3 -8 -6 -5 -6 6 -1 11 2 17 5 13 3 -3 4 -12 1 -19z m3 -38 c0 -5 -5 -10 -11 -10 -5 0 -7 5 -4 10 3 6 8 10 11 10 2 0 4 -4 4 -10z m113 -119 c28 -22 54 -38 56 -35 3 3 1 8 -5 12 -36 24 -66 53 -61 59 4 3 16 -2 27 -12 15 -14 19 -15 15 -4 -4 12 4 15 45 14 52 0 55 -2 41 -24 -7 -10 -13 -11 -31 -1 -15 8 -25 9 -32 2 -7 -7 -4 -10 8 -9 11 1 18 -4 16 -11 -1 -8 2 -11 9 -6 14 8 7 -5 -25 -49 l-20 -27 -38 37 c-44 43 -52 33 -9 -12 24 -25 27 -32 16 -42 -11 -10 -22 -2 -59 38 -25 28 -46 55 -46 60 0 5 -6 9 -14 9 -7 0 -19 6 -25 14 -10 11 -8 15 6 19 49 13 76 6 126 -32z m-742 -51 c-19 -16 -37 -27 -40 -24 -7 7 50 54 64 54 6 -1 -5 -14 -24 -30z"
       id="path9232"
       style="fill:#008080" />
    <path
       d="M6140 3901 c0 -5 5 -13 10 -16 6 -3 10 -2 10 4 0 5 -4 13 -10 16 -5 3 -10 2 -10 -4z"
       id="path9234"
       style="fill:#008080;fill-opacity:1" />
    <path
       d="M5805 4810 c3 -5 8 -10 11 -10 2 0 4 5 4 10 0 6 -5 10 -11 10 -5 0 -7 -4 -4 -10z"
       id="path9236"
       style="fill:#008080;fill-opacity:1" />
    <path
       d="M6176 4367 c3 -10 9 -15 12 -12 3 3 0 11 -7 18 -10 9 -11 8 -5 -6z"
       id="path9242"
       style="fill:#008080;fill-opacity:1" />
    <path
       d="M5580 4260 c0 -5 7 -10 16 -10 8 0 12 5 9 10 -3 6 -10 10 -16 10 -5 0 -9 -4 -9 -10z"
       id="path9244"
       style="fill:#008080" />
    <path
       d="M5557 4117 c-4 -11 -17 -13 -50 -10 -26 3 -47 1 -51 -5 -4 -7 5 -9 29 -5 43 7 51 -8 32 -62 -13 -41 -12 -79 3 -70 4 3 13 -1 19 -9 9 -11 5 -15 -19 -19 -16 -4 -30 -11 -30 -17 0 -6 7 -6 20 2 25 16 37 4 19 -19 -7 -10 -2 -8 12 5 15 13 30 22 35 21 5 -1 23 -1 39 0 20 1 26 4 17 10 -7 4 -22 46 -34 92 -21 88 -32 110 -41 86z m23 -79 c20 -93 21 -98 11 -98 -5 0 -12 11 -15 25 -5 18 -13 25 -31 25 -14 0 -25 1 -25 3 0 15 34 97 40 97 4 0 13 -24 20 -52z"
       id="path9246"
       style="fill:#008080" />
    <path
       d="M5970 4072 c0 -5 7 -15 15 -22 8 -7 15 -8 15 -2 0 5 -7 15 -15 22 -8 7 -15 8 -15 2z"
       id="path9248"
       style="fill:#008080;fill-opacity:1" />
    <path
       d="M5397 4052 c-22 -24 -21 -34 3 -55 26 -22 43 -22 63 1 21 23 21 39 3 58 -20 19 -50 18 -69 -4z m48 -16 c10 -10 11 -16 3 -24 -15 -15 -39 4 -31 24 6 17 11 18 28 0z"
       id="path9250"
       style="fill:#008080" />
    <path
       d="M6261 4051 l-25 -19 25 -26 c29 -31 30 -31 57 -7 23 19 29 41 12 41 -5 0 -10 7 -10 15 0 21 -30 18 -59 -4z m42 -15 c7 -18 -1 -26 -18 -19 -8 2 -11 11 -8 19 7 18 19 18 26 0z"
       id="path9252"
       style="fill:#008080;fill-opacity:1" />
    <path
       d="M5340 3960 c0 -5 5 -10 10 -10 6 0 10 5 10 10 0 6 -4 10 -10 10 -5 0 -10 -4 -10 -10z"
       id="path9254"
       style="fill:#008080;fill-opacity:1" />
    <path
       d="M5599 3843 c-13 -16 -12 -17 4 -4 16 13 21 21 13 21 -2 0 -10 -8 -17 -17z"
       id="path9256"
       style="fill:#008080;fill-opacity:1" />
    <path
       d="M5535 3824 c-18 -16 -22 -22 -9 -15 18 9 53 42 43 41 -2 -1 -17 -12 -34 -26z"
       id="path9258"
       style="fill:#008080;fill-opacity:1" />
  </g>
</svg>
