<?xml version="1.0" encoding="UTF-8" standalone="no"?>
<svg
   xmlns:dc="http://purl.org/dc/elements/1.1/"
   xmlns:cc="http://creativecommons.org/ns#"
   xmlns:rdf="http://www.w3.org/1999/02/22-rdf-syntax-ns#"
   xmlns:svg="http://www.w3.org/2000/svg"
   xmlns="http://www.w3.org/2000/svg"
   xmlns:sodipodi="http://sodipodi.sourceforge.net/DTD/sodipodi-0.dtd"
   xmlns:inkscape="http://www.inkscape.org/namespaces/inkscape"
   version="1.0"
   width="1169.000000pt"
   height="847.000000pt"
   viewBox="0 0 1169.000000 847.000000"
   preserveAspectRatio="xMidYMid meet"
   id="svg9716"
   inkscape:version="0.91 r13725"
   sodipodi:docname="icoVacc.svg">
  <defs
     id="defs9800" />
  <sodipodi:namedview
     pagecolor="#ffffff"
     bordercolor="#666666"
     borderopacity="1"
     objecttolerance="10"
     gridtolerance="10"
     guidetolerance="10"
     inkscape:pageopacity="0"
     inkscape:pageshadow="2"
     inkscape:window-width="544"
     inkscape:window-height="643"
     id="namedview9798"
     showgrid="false"
     inkscape:zoom="2.4311408"
     inkscape:cx="750.3561"
     inkscape:cy="541.85968"
     inkscape:window-x="65"
     inkscape:window-y="24"
     inkscape:window-maximized="0"
     inkscape:current-layer="svg9716" />
  <metadata
     id="metadata9718">
Created by potrace 1.13, written by Peter Selinger 2001-2015
<rdf:RDF>
  <cc:Work
     rdf:about="">
    <dc:format>image/svg+xml</dc:format>
    <dc:type
       rdf:resource="http://purl.org/dc/dcmitype/StillImage" />
  </cc:Work>
</rdf:RDF>
</metadata>
  <g
     transform="translate(0.000000,847.000000) scale(0.100000,-0.100000)"
     fill="#000000"
     stroke="none"
     id="g9720">
    <path
       d="M5755 4820 c-17 -5 8 -6 60 -3 66 4 107 1 154 -11 35 -10 65 -15 68 -12 3 3 -8 8 -23 11 -16 4 -42 11 -58 16 -34 11 -158 10 -201 -1z"
       id="path9742"
       style="fill:#87de87;fill-opacity:1" />
    <path
       d="M5660 4803 c-112 -39 -220 -119 -277 -205 -96 -145 -131 -272 -119 -443 5 -75 12 -102 40 -160 67 -137 142 -218 261 -284 23 -13 29 -15 15 -4 -97 70 -210 191 -253 270 -48 91 -63 189 -49 320 8 80 16 106 60 195 63 127 130 202 227 254 39 20 88 42 110 49 22 7 31 13 20 13 -11 0 -27 -2 -35 -5z"
       id="path9744"
       style="fill:#87de87" />
    <path
       d="M6057 4779 c7 -7 15 -10 18 -7 3 3 -2 9 -12 12 -14 6 -15 5 -6 -5z"
       id="path9746"
       style="fill:#87de87;fill-opacity:1" />
    <path
       d="M6118 4750 c18 -11 37 -20 42 -20 6 0 10 -4 10 -10 0 -5 5 -10 11 -10 19 0 -2 20 -41 40 -51 26 -64 26 -22 0z"
       id="path9748"
       style="fill:#87de87;fill-opacity:1" />
    <path
       d="M6200 4701 c0 -6 3 -11 8 -11 4 0 25 -17 47 -39 50 -48 113 -153 151 -251 26 -67 29 -86 27 -176 -3 -152 -55 -275 -169 -402 -94 -106 -263 -170 -455 -173 l-64 -1 43 -10 c53 -12 250 22 322 56 122 56 212 147 281 286 66 130 78 286 33 412 -32 90 -82 180 -129 235 -41 48 -95 90 -95 74z"
       id="path9750"
       style="fill:#87de87;fill-opacity:1" />
    <path
       d="M6160 4555 c-29 -30 -57 -52 -61 -49 -5 3 -19 -1 -31 -7 -13 -7 -38 -12 -56 -10 -30 2 -43 -8 -145 -108 -61 -61 -116 -111 -120 -111 -5 0 -17 -10 -27 -22 -15 -19 -21 -21 -31 -10 -18 17 -69 16 -69 -2 0 -8 6 -21 14 -29 8 -7 20 -33 27 -57 l13 -43 -56 -51 c-35 -32 -67 -52 -84 -54 -63 -5 -71 -47 -19 -99 33 -33 37 -34 58 -20 12 8 24 25 25 38 2 13 9 31 16 39 24 28 28 40 12 34 -9 -3 -16 -10 -16 -15 0 -5 -5 -9 -11 -9 -5 0 -7 6 -3 13 6 9 4 9 -8 -1 -9 -8 -19 -9 -22 -4 -8 14 21 35 35 26 7 -4 9 -3 6 3 -7 12 86 106 96 97 4 -4 7 -1 7 6 0 7 7 22 17 32 9 10 11 18 5 18 -6 0 -14 -4 -17 -10 -12 -20 -27 -10 -22 16 3 18 1 24 -8 20 -13 -5 -45 23 -45 38 0 13 54 -4 70 -22 8 -9 32 -30 52 -45 21 -15 41 -39 44 -52 3 -14 14 -25 23 -25 9 0 21 -11 28 -25 10 -22 9 -25 -7 -25 -11 0 -25 9 -33 20 -8 12 -18 20 -23 19 -21 -4 -34 2 -32 14 5 20 -34 8 -64 -21 -15 -14 -26 -28 -23 -30 3 -3 14 5 24 17 18 21 23 22 58 10 21 -7 47 -21 59 -31 29 -26 64 -24 64 4 0 12 -7 29 -16 39 -14 15 -5 28 110 155 120 131 126 140 126 180 0 24 5 46 10 49 6 3 10 14 10 23 0 10 20 35 45 55 44 37 74 77 58 77 -5 0 -33 -25 -63 -55z m-60 -72 c0 -5 -4 -15 -10 -23 -11 -18 -25 -7 -17 15 6 15 27 21 27 8z m-43 -35 c13 -12 23 -33 23 -48 0 -32 -45 -101 -99 -153 -36 -35 -40 -36 -46 -18 -6 21 -52 59 -92 76 -22 9 -23 11 -8 33 9 12 25 22 36 22 12 0 17 4 13 11 -10 17 16 28 42 19 28 -11 39 -1 17 15 -17 13 -10 35 12 35 7 0 15 7 19 15 8 22 56 18 83 -7z m-187 -181 c38 -19 46 -27 48 -55 3 -32 3 -32 -40 -33 -42 -1 -42 -1 -16 -13 l27 -12 -26 -28 c-25 -28 -27 -28 -40 -10 -8 11 -16 29 -20 42 -3 12 -10 22 -17 22 -6 0 -22 9 -36 20 l-25 19 34 35 c41 42 51 43 111 13z m-330 -289 c-1 -7 -7 -24 -14 -37 l-13 -23 -6 22 c-3 12 -3 28 0 36 6 17 33 19 33 2z m20 -25 c-1 -21 -13 -52 -20 -48 -10 6 0 55 11 55 5 0 9 -3 9 -7z m16 -51 c-15 -15 -16 -15 -16 0 0 9 3 24 6 33 7 16 8 16 17 0 6 -12 5 -22 -7 -33z"
       id="path9752"
       style="fill:#87de87;fill-opacity:1" />
    <path
       d="M6011 4401 c-17 -11 -10 -46 9 -46 17 0 26 33 13 46 -4 4 -14 4 -22 0z"
       id="path9754"
       style="fill:#87de87;fill-opacity:1" />
    <path
       d="M5780 4238 c0 -9 5 -20 10 -23 13 -8 13 5 0 25 -8 13 -10 13 -10 -2z"
       id="path9756"
       style="fill:#87de87;fill-opacity:1" />
    <path
       d="M5840 4230 c6 -11 15 -18 20 -15 13 8 0 35 -16 35 -12 0 -12 -4 -4 -20z"
       id="path9758"
       style="fill:#87de87;fill-opacity:1" />
    <path
       d="M5625 3680 c3 -5 11 -10 16 -10 6 0 7 5 4 10 -3 6 -11 10 -16 10 -6 0 -7 -4 -4 -10z"
       id="path9770"
       style="fill:#87de87;fill-opacity:1" />
    <path
       d="M5680 3660 c14 -4 34 -8 45 -8 16 0 15 2 -5 8 -14 4 -34 8 -45 8 -16 0 -15 -2 5 -8z"
       id="path9772"
       style="fill:#87de87;fill-opacity:1" />
  </g>
</svg>
