<?xml version="1.0" encoding="UTF-8" standalone="no"?>
<svg
   xmlns:dc="http://purl.org/dc/elements/1.1/"
   xmlns:cc="http://creativecommons.org/ns#"
   xmlns:rdf="http://www.w3.org/1999/02/22-rdf-syntax-ns#"
   xmlns:svg="http://www.w3.org/2000/svg"
   xmlns="http://www.w3.org/2000/svg"
   xmlns:sodipodi="http://sodipodi.sourceforge.net/DTD/sodipodi-0.dtd"
   xmlns:inkscape="http://www.inkscape.org/namespaces/inkscape"
   version="1.0"
   width="308.5347pt"
   height="307.32501pt"
   viewBox="0 0 308.5347 307.32501"
   preserveAspectRatio="xMidYMid meet"
   id="svg4083"
   inkscape:version="0.91 r13725"
   sodipodi:docname="logo1.svg">
  <defs
     id="defs4115" />
  <sodipodi:namedview
     pagecolor="#ffffff"
     bordercolor="#666666"
     borderopacity="1"
     objecttolerance="10"
     gridtolerance="10"
     guidetolerance="10"
     inkscape:pageopacity="0"
     inkscape:pageshadow="2"
     inkscape:window-width="1301"
     inkscape:window-height="744"
     id="namedview4113"
     showgrid="false"
     fit-margin-top="0"
     fit-margin-left="0"
     fit-margin-right="0"
     fit-margin-bottom="0"
     inkscape:zoom="0.91361341"
     inkscape:cx="495.45315"
     inkscape:cy="178.0583"
     inkscape:window-x="65"
     inkscape:window-y="24"
     inkscape:window-maximized="1"
     inkscape:current-layer="svg4083" />
  <metadata
     id="metadata4085">
Created by potrace 1.13, written by Peter Selinger 2001-2015
<rdf:RDF>
  <cc:Work
     rdf:about="">
    <dc:format>image/svg+xml</dc:format>
    <dc:type
       rdf:resource="http://purl.org/dc/dcmitype/StillImage" />
    <dc:title></dc:title>
  </cc:Work>
</rdf:RDF>
</metadata>
  <g
     transform="matrix(0.1,0,0,-0.1,-270.02794,738.725)"
     id="g4087"
     style="fill:#000000;stroke:none">
    <path
       d="m 4140,7379 c -41,-4 -109,-17 -150,-29 -41,-12 -86,-24 -100,-27 -114,-24 -360,-111 -437,-154 -29,-16 -59,-29 -66,-29 -7,0 -19,-8 -28,-17 -8,-10 -52,-52 -98,-93 -157,-143 -323,-353 -397,-501 -15,-30 -35,-65 -44,-79 -10,-14 -21,-36 -25,-50 -4,-14 -13,-38 -20,-55 -17,-40 -46,-130 -50,-158 -41,-274 -31,-558 30,-787 69,-260 190,-455 435,-700 68,-67 99,-93 152,-125 54,-32 208,-113 238,-125 19,-7 62,-25 95,-41 160,-74 270,-91 600,-93 l 270,-2 78,28 c 43,15 99,35 125,43 99,34 319,151 397,212 200,155 283,234 327,309 10,16 22,36 27,44 55,88 134,240 156,300 14,41 30,84 34,95 45,113 81,288 90,435 5,79 8,147 6,150 -2,3 -6,28 -9,55 -21,172 -53,296 -125,470 -34,84 -117,234 -141,255 -3,3 -24,30 -47,60 -23,30 -53,67 -65,82 -28,31 -91,108 -98,118 -3,4 -32,26 -65,49 -33,23 -85,59 -115,81 -56,40 -108,69 -124,68 -5,0 -12,4 -15,9 -9,12 -137,73 -155,73 -8,0 -18,5 -21,10 -4,6 -11,8 -16,5 -5,-4 -9,-2 -9,2 0,5 -19,14 -42,20 -24,6 -56,17 -73,23 -16,6 -32,12 -35,12 -3,0 -12,4 -21,9 -9,5 -32,11 -50,13 -73,11 -146,25 -184,35 -42,11 -112,11 -235,0 z m 200,-23 c 36,-4 79,-10 95,-15 17,-5 54,-12 84,-16 29,-3 74,-13 100,-21 75,-25 183,-65 226,-84 22,-9 51,-21 65,-25 14,-4 41,-18 60,-31 19,-13 42,-24 50,-24 8,0 21,-9 28,-20 7,-11 18,-20 25,-20 15,0 30,-11 146,-107 99,-81 147,-133 264,-283 46,-59 120,-180 111,-180 -4,0 0,-10 8,-22 17,-27 68,-164 98,-263 12,-38 24,-77 27,-85 3,-8 8,-35 10,-60 2,-25 8,-71 12,-102 4,-32 6,-60 4,-62 -3,-2 -6,-78 -7,-167 -3,-151 -6,-172 -35,-269 -18,-58 -39,-130 -48,-160 -9,-30 -19,-59 -23,-65 -4,-5 -13,-26 -19,-47 -7,-20 -41,-84 -76,-143 -36,-58 -65,-110 -65,-115 0,-5 -20,-30 -45,-56 -25,-25 -45,-51 -45,-58 0,-15 -127,-135 -225,-214 -30,-25 -164,-112 -170,-112 -5,0 -29,-12 -54,-27 -25,-15 -59,-33 -76,-39 -16,-7 -59,-24 -94,-39 -148,-62 -272,-80 -558,-80 -256,1 -350,15 -475,74 -35,16 -83,35 -108,42 -25,7 -60,21 -78,31 -18,10 -37,18 -42,18 -18,0 -184,108 -225,146 -22,20 -67,62 -101,93 -95,88 -264,296 -264,325 0,4 -12,26 -28,49 -29,45 -38,65 -82,192 -50,142 -90,381 -90,537 0,123 17,276 36,330 8,23 12,43 10,45 -8,8 45,144 91,237 56,111 107,192 142,226 15,14 57,66 94,116 68,93 257,284 281,284 7,0 19,7 27,16 28,33 235,124 285,124 16,0 39,7 50,15 10,8 25,15 32,15 8,0 28,6 45,14 48,22 211,66 332,89 22,4 95,2 195,-7 z"
       id="path4089"
       inkscape:connector-curvature="0" />
    <path
       d="m 4419,7226 c -2,-2 -78,-5 -169,-7 -91,-2 -181,-7 -200,-10 -19,-4 -62,-13 -95,-19 -69,-14 -182,-47 -207,-61 -10,-5 -23,-9 -30,-9 -15,-1 -96,-41 -185,-93 -131,-75 -307,-240 -426,-400 -120,-160 -215,-386 -233,-552 -4,-33 -10,-64 -13,-70 -10,-15 5,-322 17,-375 6,-25 18,-83 27,-130 9,-47 23,-101 31,-120 9,-19 19,-44 24,-55 5,-11 23,-54 41,-95 61,-146 85,-179 250,-342 173,-171 274,-252 347,-278 208,-76 318,-111 382,-124 145,-29 414,-27 578,3 115,21 304,94 341,130 9,9 30,25 46,35 55,35 170,124 221,173 78,73 194,209 194,226 0,9 4,19 10,22 9,6 57,77 98,145 49,83 121,303 127,389 16,220 16,276 5,376 -20,185 -38,244 -139,457 -22,48 -41,93 -41,99 0,41 -259,330 -351,393 -152,103 -197,131 -248,153 -31,14 -74,33 -96,43 -43,20 -79,31 -194,60 -41,11 -79,24 -85,30 -11,11 -20,13 -27,6 z m 121,-61 c 58,-15 128,-37 155,-50 28,-12 61,-26 75,-30 43,-13 133,-63 190,-105 30,-22 73,-52 95,-66 53,-36 198,-183 258,-264 46,-61 48,-82 9,-64 -9,4 -20,8 -25,8 -4,1 -34,34 -67,74 -110,135 -184,213 -244,258 -70,53 -300,168 -371,186 -27,6 -57,18 -66,25 -12,10 -59,14 -185,14 -184,0 -218,-3 -369,-31 -55,-10 -120,-22 -145,-25 -99,-16 -226,-107 -344,-248 -22,-26 -46,-47 -55,-47 -9,0 -38,8 -65,19 l -50,18 52,55 c 28,30 79,70 112,89 34,19 67,39 73,44 68,58 350,149 497,162 36,3 66,6 68,8 1,1 68,1 150,0 124,-2 164,-7 252,-30 z m -39,-50 c 20,-8 39,-12 41,-9 3,2 17,0 32,-6 15,-5 38,-12 51,-14 23,-4 48,-15 185,-79 69,-32 140,-77 193,-122 104,-88 352,-396 344,-427 -3,-9 2,-23 10,-29 41,-35 84,-192 64,-241 -19,-50 -38,-34 -65,55 -41,133 -175,317 -390,533 -201,202 -248,226 -510,254 -207,23 -555,-34 -721,-117 -81,-41 -101,-61 -120,-118 -17,-50 -17,-55 -1,-106 10,-30 26,-72 36,-94 46,-104 70,-177 70,-212 0,-39 13,-72 23,-57 13,23 -22,157 -68,258 -52,115 -57,169 -22,230 74,131 554,233 882,187 92,-13 168,-35 195,-56 8,-7 29,-19 45,-28 31,-16 189,-158 235,-211 14,-17 44,-50 68,-75 23,-25 42,-51 42,-58 0,-7 -19,-22 -41,-34 -45,-23 -92,-72 -94,-98 -1,-9 -5,-25 -8,-37 -4,-11 -1,-28 7,-39 14,-19 15,-19 35,-1 25,23 40,13 57,-36 14,-43 32,-46 36,-7 3,31 28,55 28,27 1,-31 16,-40 53,-30 28,8 40,7 59,-6 47,-34 86,-80 93,-113 14,-66 57,-88 93,-49 19,20 19,20 44,0 14,-10 33,-35 42,-55 9,-19 23,-35 31,-35 20,0 30,-74 30,-220 0,-129 -10,-205 -25,-195 -4,3 -18,24 -29,48 -11,23 -46,68 -77,101 -30,32 -68,84 -83,115 -20,43 -38,63 -76,88 -28,17 -81,60 -118,94 -38,35 -81,71 -95,80 -15,9 -66,54 -114,100 -85,83 -86,85 -93,144 -4,33 -13,67 -20,75 -13,15 -20,62 -32,198 -3,39 -10,72 -14,72 -12,0 -11,-87 1,-130 6,-19 11,-67 11,-107 1,-55 4,-70 14,-67 14,6 19,-7 30,-71 9,-56 40,-91 163,-191 59,-48 119,-101 135,-118 15,-17 58,-53 95,-81 48,-36 73,-63 89,-97 13,-26 48,-73 79,-104 59,-61 102,-131 124,-201 12,-38 11,-51 -9,-120 -39,-138 -76,-222 -147,-328 -49,-74 -90,-118 -103,-111 -6,4 -21,-9 -33,-28 -13,-20 -29,-36 -37,-36 -21,0 -61,-41 -61,-62 0,-23 5,-23 43,4 31,22 30,21 -8,-24 -39,-46 -221,-198 -237,-198 -4,0 -8,19 -8,43 0,23 -3,52 -6,64 -5,18 2,26 36,45 80,43 76,36 68,108 -12,119 -80,223 -185,282 -32,18 -50,34 -44,38 8,5 7,15 -4,36 -8,16 -15,40 -14,54 l 0,25 10,-25 c 23,-56 53,-109 65,-114 25,-10 22,10 -8,59 -17,28 -34,63 -37,79 -7,33 -30,47 -32,19 -3,-36 -17,84 -18,150 -1,43 3,67 10,67 6,0 9,9 6,20 -8,33 12,23 27,-13 13,-33 13,-60 1,-103 -7,-24 4,-37 22,-26 6,4 18,26 26,48 11,35 12,44 0,60 -7,10 -13,28 -13,39 0,12 -15,41 -32,65 -18,24 -37,50 -43,58 -23,36 -119,119 -193,169 -61,40 -103,52 -179,53 -29,0 -73,7 -99,16 -28,9 -49,12 -53,6 -11,-17 -104,-21 -136,-6 -35,16 -130,102 -137,124 -8,24 -21,3 -14,-23 3,-15 36,-48 80,-81 l 73,-57 84,6 c 103,6 294,-12 333,-32 65,-34 156,-115 184,-166 28,-50 29,-57 31,-197 2,-130 16,-240 37,-294 6,-16 4,-17 -17,-10 -13,4 -43,7 -66,6 -27,-1 -54,5 -75,18 -54,32 -116,60 -147,66 -28,6 -28,6 -33,-52 -3,-37 0,-67 8,-83 13,-24 14,-22 14,37 0,54 2,62 19,62 10,0 24,-7 31,-15 7,-8 18,-15 26,-15 7,0 17,-8 23,-17 5,-10 13,-14 17,-10 4,4 18,-2 30,-14 18,-17 26,-19 42,-10 38,20 86,12 170,-31 97,-48 143,-97 172,-182 26,-72 26,-108 0,-124 -12,-7 -19,-16 -16,-21 7,-10 -41,-46 -74,-55 -14,-4 -39,-14 -55,-21 -72,-33 -121,-39 -187,-26 -127,25 -134,24 -210,-4 -84,-32 -163,-77 -189,-108 -10,-12 -26,-39 -35,-59 -9,-21 -22,-38 -28,-37 -11,0 -76,77 -106,125 -18,29 -30,31 -30,4 0,-12 20,-42 44,-68 55,-59 99,-129 90,-144 -8,-13 -169,-3 -268,18 -111,23 -327,106 -359,138 -15,15 -32,24 -37,21 -23,-14 -103,50 -287,229 -80,77 -126,130 -133,152 -7,19 -18,34 -26,34 -13,0 -63,87 -79,139 -4,13 -24,60 -45,105 -36,78 -52,139 -85,326 -15,89 -20,267 -7,286 4,6 30,20 57,33 117,52 144,70 210,137 74,74 123,158 127,215 1,19 6,40 11,47 7,9 6,17 -1,24 -14,14 -18,3 -26,-66 -9,-70 -42,-132 -111,-202 -60,-61 -106,-91 -187,-119 -67,-23 -78,-21 -78,20 0,40 32,190 54,251 49,139 167,330 273,441 78,82 106,94 164,68 45,-21 104,-22 127,-3 8,7 25,29 37,48 41,65 149,164 206,189 99,44 114,49 154,54 22,3 94,14 160,26 66,11 138,21 160,23 83,6 241,-3 276,-17 z m 882,-599 c 55,-81 128,-226 150,-301 36,-118 31,-130 -22,-60 -18,25 -37,45 -42,45 -5,0 -9,13 -9,29 0,16 -12,62 -26,103 -14,40 -28,84 -31,98 -4,14 -21,43 -40,66 -18,23 -33,44 -33,48 0,9 43,-14 53,-28 z m -181,-48 c 110,-146 123,-174 62,-133 -20,14 -50,25 -66,25 -21,0 -31,6 -35,20 -7,26 -23,25 -51,-1 l -22,-20 -9,23 c -5,13 -7,26 -4,31 2,4 -5,7 -16,7 -26,0 -26,10 -1,43 11,14 20,30 20,36 0,9 45,40 61,41 3,0 31,-33 61,-72 z m 89,-1471 c -10,-9 -11,-8 -5,6 3,10 9,15 12,12 3,-3 0,-11 -7,-18 z m -370,-272 c 3,-52 0,-60 -16,-64 -11,-2 -36,-17 -56,-35 -81,-69 -349,-139 -512,-134 -93,3 -107,17 -86,89 22,72 89,129 204,174 68,26 104,35 123,31 132,-32 195,-32 272,2 57,25 68,16 71,-63 z"
       id="path4091"
       inkscape:connector-curvature="0" />
    <path
       d="m 4715,6773 c -21,-43 -47,-97 -59,-121 -30,-62 -47,-73 -113,-78 -104,-7 -156,-37 -209,-120 -11,-16 -29,-37 -41,-47 -12,-10 -25,-26 -28,-37 -4,-11 -10,-18 -15,-15 -10,6 -35,-23 -26,-32 3,-3 50,39 104,95 106,110 135,127 230,136 70,6 82,11 82,30 0,8 7,20 17,27 9,8 22,27 30,44 l 14,30 -5,-40 c -2,-22 -8,-52 -11,-67 -11,-41 9,-34 25,10 13,35 15,41 19,60 4,19 27,-39 36,-91 6,-32 15,-57 20,-55 23,7 -9,272 -34,288 -7,4 -4,14 9,28 24,25 25,32 6,32 -7,0 -30,-35 -51,-77 z m 1,-69 c -4,-9 -9,-15 -11,-12 -3,3 -3,13 1,22 4,9 9,15 11,12 3,-3 3,-13 -1,-22 z"
       id="path4093"
       inkscape:connector-curvature="0" />
    <path
       d="m 4792,6408 c -6,-14 -16,-29 -21,-33 -16,-9 -14,-25 3,-25 16,0 40,53 33,72 -3,8 -9,3 -15,-14 z"
       id="path4095"
       inkscape:connector-curvature="0" />
    <path
       d="m 4110,6275 c -117,-59 -148,-95 -91,-103 18,-3 21,0 16,20 -5,20 1,26 52,46 51,20 143,84 118,81 -6,0 -48,-20 -95,-44 z"
       id="path4097"
       inkscape:connector-curvature="0" />
    <path
       d="m 3717,6283 c -9,-18 -17,-48 -17,-68 0,-49 -45,-138 -95,-189 -22,-22 -52,-57 -66,-76 -30,-41 -71,-120 -63,-120 3,0 -3,-12 -14,-27 -39,-56 -82,-222 -82,-320 0,-53 6,-84 33,-178 7,-22 12,-42 12,-45 0,-3 9,-21 21,-40 15,-26 28,-35 50,-37 l 29,-1 -43,37 c -45,39 -46,42 -68,166 -18,107 -18,138 6,236 41,167 94,273 185,369 34,36 71,83 83,106 26,52 54,158 50,193 l -3,26 -18,-32 z"
       id="path4099"
       inkscape:connector-curvature="0" />
    <path
       d="m 4704,6199 c -32,-42 -66,-129 -60,-154 8,-33 21,-25 36,23 6,20 18,53 27,73 17,42 15,82 -3,58 z"
       id="path4101"
       inkscape:connector-curvature="0" />
    <path
       d="m 4044,5856 c -2,-6 -5,-42 -6,-81 l -3,-70 -70,0 c -38,0 -75,-4 -81,-8 -7,-4 -11,-31 -9,-69 2,-35 4,-79 4,-99 l 1,-36 60,1 c 32,0 64,-4 70,-10 6,-6 13,-37 15,-69 2,-31 6,-59 8,-62 4,-4 112,-13 187,-17 l 35,-1 -2,45 c -1,25 0,60 3,78 l 5,32 63,0 c 42,0 65,4 68,13 7,21 3,181 -5,195 -5,7 -30,12 -63,12 -64,0 -66,3 -68,93 l -1,62 -103,1 c -67,1 -105,-3 -108,-10 z m 170,-25 c 20,-22 24,-38 25,-102 l 1,-47 57,-1 c 31,0 60,-4 65,-9 5,-5 8,-40 6,-78 l -3,-69 -65,-5 -65,-5 3,-53 c 4,-56 -17,-105 -41,-97 -6,2 -38,6 -71,9 -32,3 -64,10 -70,16 -6,6 -11,35 -11,65 0,29 -2,56 -5,58 -3,3 -27,6 -55,8 -80,4 -86,10 -83,82 l 3,62 70,3 c 39,2 75,8 80,13 6,6 10,39 10,74 0,35 4,67 8,71 5,5 32,11 60,15 29,3 55,7 58,8 3,0 14,-8 23,-18 z"
       id="path4103"
       inkscape:connector-curvature="0" />
    <path
       d="m 5256,5817 c -90,-56 -173,-121 -190,-149 -36,-60 -10,-64 46,-8 22,22 42,40 44,40 1,0 15,11 30,25 15,14 33,25 40,25 8,0 14,5 14,10 0,6 9,10 20,10 21,0 40,27 33,48 -6,15 -12,14 -37,-1 z"
       id="path4105"
       inkscape:connector-curvature="0" />
    <path
       d="m 5001,5470 c -14,-66 -14,-170 0,-170 6,0 9,19 8,48 -4,57 9,139 22,147 14,9 11,25 -5,25 -9,0 -18,-19 -25,-50 z"
       id="path4107"
       inkscape:connector-curvature="0" />
    <path
       d="m 4480,5191 c 0,-7 -11,-21 -24,-32 -12,-10 -38,-43 -57,-74 -39,-65 -92,-103 -154,-112 -41,-5 -51,-2 -139,52 -119,71 -194,93 -361,104 -104,6 -139,12 -174,30 -23,12 -40,17 -36,11 19,-30 98,-52 223,-60 177,-11 292,-50 357,-120 l 30,-33 -30,7 c -52,11 -58,11 -62,-1 -6,-17 63,-34 94,-22 13,5 48,9 78,9 84,0 156,42 199,115 33,55 59,83 74,78 16,-6 15,6 -3,37 -8,14 -14,19 -15,11 z"
       id="path4109"
       inkscape:connector-curvature="0" />
    <path
       d="m 3815,4896 c -24,-18 -24,-18 45,-21 30,-1 65,-5 78,-9 27,-9 29,5 3,21 -33,21 -104,26 -126,9 z"
       id="path4111"
       inkscape:connector-curvature="0" />
  </g>
</svg>
