<?xml version="1.0" standalone="no"?>
<!DOCTYPE svg PUBLIC "-//W3C//DTD SVG 20010904//EN"
 "http://www.w3.org/TR/2001/REC-SVG-20010904/DTD/svg10.dtd">
<svg version="1.0" xmlns="http://www.w3.org/2000/svg"
 width="1169.000000pt" height="847.000000pt" viewBox="0 0 1169.000000 847.000000"
 preserveAspectRatio="xMidYMid meet">
<metadata>
Created by potrace 1.13, written by Peter Selinger 2001-2015
</metadata>
<g transform="translate(0.000000,847.000000) scale(0.100000,-0.100000)"
fill="#000000" stroke="none">
<path d="M5795 6130 c3 -5 8 -10 11 -10 2 0 4 5 4 10 0 6 -5 10 -11 10 -5 0
-7 -4 -4 -10z"/>
<path d="M5713 6123 c9 -2 25 -2 35 0 9 3 1 5 -18 5 -19 0 -27 -2 -17 -5z"/>
<path d="M5877 6120 c12 -5 32 -7 44 -5 41 8 32 15 -17 14 -39 0 -44 -2 -27
-9z"/>
<path d="M5980 6120 c0 -9 35 -20 64 -20 11 0 17 3 13 6 -10 10 -77 22 -77 14z"/>
<path d="M5613 6113 c9 -2 23 -2 30 0 6 3 -1 5 -18 5 -16 0 -22 -2 -12 -5z"/>
<path d="M5523 6103 c9 -2 25 -2 35 0 9 3 1 5 -18 5 -19 0 -27 -2 -17 -5z"/>
<path d="M6148 6093 c7 -3 16 -2 19 1 4 3 -2 6 -13 5 -11 0 -14 -3 -6 -6z"/>
<path d="M6398 6033 c7 -3 16 -2 19 1 4 3 -2 6 -13 5 -11 0 -14 -3 -6 -6z"/>
<path d="M5150 6005 c-25 -10 -29 -14 -14 -14 11 -1 29 6 40 14 23 17 19 17
-26 0z"/>
<path d="M6500 5998 c28 -16 66 -20 53 -7 -5 5 -24 11 -43 15 -35 6 -35 6 -10
-8z"/>
<path d="M5050 5960 c-9 -6 -10 -10 -3 -10 6 0 15 5 18 10 8 12 4 12 -15 0z"/>
<path d="M4990 5930 c-8 -5 -10 -10 -5 -10 6 0 17 5 25 10 8 5 11 10 5 10 -5
0 -17 -5 -25 -10z"/>
<path d="M4935 5903 c-40 -21 -80 -53 -68 -53 6 0 16 7 23 14 6 8 27 20 46 26
19 6 34 16 34 21 0 11 1 11 -35 -8z"/>
<path d="M5820 5907 c-3 -2 -41 -7 -85 -10 -126 -10 -336 -48 -259 -47 10 0
55 7 99 15 134 23 327 33 390 20 11 -2 47 -7 80 -10 33 -3 78 -10 100 -16 22
-6 65 -16 95 -24 30 -7 82 -20 114 -29 33 -9 64 -15 70 -12 6 2 5 6 -4 8 -8 3
-32 11 -52 17 -20 7 -47 14 -58 16 -12 2 -29 6 -38 9 -9 3 -33 7 -52 10 -19 3
-51 10 -70 16 -59 18 -319 47 -330 37z"/>
<path d="M5370 5834 c-19 -9 -70 -27 -112 -40 -43 -14 -78 -27 -78 -30 0 -5
46 4 70 14 8 3 58 20 110 38 52 17 84 32 70 33 -14 0 -41 -7 -60 -15z"/>
<path d="M4820 5829 c0 -5 5 -7 10 -4 6 3 10 8 10 11 0 2 -4 4 -10 4 -5 0 -10
-5 -10 -11z"/>
<path d="M6875 5810 c10 -11 20 -20 23 -20 3 0 -3 9 -13 20 -10 11 -20 20 -23
20 -3 0 3 -9 13 -20z"/>
<path d="M5093 5730 c-13 -5 -23 -11 -23 -14 0 -7 40 6 46 15 6 10 6 10 -23
-1z"/>
<path d="M7010 5712 c0 -4 10 -13 23 -21 22 -14 22 -14 3 8 -20 22 -26 25 -26
13z"/>
<path d="M5007 5679 c-22 -11 -36 -23 -33 -26 5 -5 76 35 76 43 0 6 -1 5 -43
-17z"/>
<path d="M7060 5677 c0 -2 15 -16 33 -33 l32 -29 -29 33 c-28 30 -36 37 -36
29z"/>
<path d="M4477 5563 c-54 -53 -96 -99 -95 -103 2 -3 49 41 104 97 56 57 99
103 95 103 -3 0 -50 -44 -104 -97z"/>
<path d="M4940 5635 c-11 -13 -10 -14 4 -9 9 3 16 10 16 15 0 13 -6 11 -20 -6z"/>
<path d="M4862 5583 c-29 -20 -50 -38 -48 -40 4 -5 106 66 106 73 0 6 -1 5
-58 -33z"/>
<path d="M7199 5532 c29 -34 58 -65 65 -69 18 -11 -49 69 -85 102 -19 18 -11
4 20 -33z"/>
<path d="M4742 5494 l-37 -36 43 33 c23 18 42 34 42 36 0 9 -14 0 -48 -33z"/>
<path d="M6915 5494 c23 -22 65 -61 96 -89 62 -57 139 -147 139 -164 0 -6 15
-31 33 -55 17 -25 48 -67 67 -93 54 -74 105 -179 166 -343 7 -19 13 -28 14
-19 1 44 -130 329 -173 374 -14 16 -40 55 -59 87 -47 84 -133 182 -235 267
-48 40 -70 56 -48 35z"/>
<path d="M4340 5418 c-15 -21 -17 -28 -6 -19 16 13 41 51 33 51 -2 0 -14 -15
-27 -32z"/>
<path d="M4679 5433 c-13 -16 -12 -17 4 -4 16 13 21 21 13 21 -2 0 -10 -8 -17
-17z"/>
<path d="M5043 5413 c24 -4 27 -8 27 -44 0 -21 4 -39 8 -39 4 0 8 20 8 45 l1
45 -36 -1 c-30 -2 -32 -3 -8 -6z"/>
<path d="M7310 5415 c0 -10 60 -78 79 -89 9 -5 -4 13 -28 40 -25 27 -46 51
-48 53 -2 2 -3 1 -3 -4z"/>
<path d="M4624 5378 l-29 -33 33 29 c30 28 37 36 29 36 -2 0 -16 -15 -33 -32z"/>
<path d="M4563 5310 c-13 -15 -23 -32 -23 -37 0 -4 -21 -33 -46 -63 -41 -50
-80 -110 -71 -110 7 0 122 150 138 180 9 16 22 37 29 45 7 8 9 15 4 14 -5 0
-19 -13 -31 -29z"/>
<path d="M6148 5324 c-10 -9 -105 -26 -142 -25 -21 1 -43 -2 -50 -7 -6 -5 -24
-13 -41 -17 -41 -11 -46 -12 -83 -18 -18 -3 -51 -16 -75 -30 -52 -30 -92 -44
-83 -28 4 6 3 11 -2 11 -13 0 -36 -29 -29 -36 10 -11 74 6 98 25 23 17 66 33
174 65 28 8 77 16 110 17 33 1 71 6 85 11 13 5 65 6 114 2 82 -6 87 -8 65 -21
-24 -14 -23 -14 8 -8 20 4 36 1 44 -8 7 -8 23 -12 34 -10 16 4 17 3 5 -6 -12
-9 -10 -11 10 -11 18 0 21 -3 11 -9 -15 -9 -104 -7 -136 4 -11 3 -6 -2 12 -12
26 -15 29 -20 17 -30 -18 -17 -27 -16 -20 2 4 12 -2 14 -32 9 -38 -6 -62 -20
-62 -35 0 -5 18 -6 40 -3 36 6 40 5 34 -11 -7 -16 -6 -16 18 -1 40 26 135 47
238 52 103 5 197 20 205 34 3 5 -9 5 -27 0 -18 -4 -66 -11 -106 -13 -56 -4
-75 -2 -87 9 -8 9 -15 12 -15 7 0 -4 -5 0 -11 10 -8 13 -14 15 -29 7 -13 -7
-21 -7 -25 0 -3 5 0 10 7 11 7 0 -5 7 -27 15 -22 8 -45 21 -51 29 -8 10 -30
14 -80 13 -38 0 -79 2 -91 5 -11 3 -23 4 -25 1z"/>
<path d="M4256 5293 c-6 -14 -5 -15 5 -6 7 7 10 15 7 18 -3 3 -9 -2 -12 -12z"/>
<path d="M5070 5285 c0 -14 2 -25 4 -25 2 0 6 11 8 25 3 14 1 25 -3 25 -5 0
-9 -11 -9 -25z"/>
<path d="M4863 5265 c0 -22 2 -30 4 -17 2 12 2 30 0 40 -3 9 -5 -1 -4 -23z"/>
<path d="M6815 5291 c-27 -8 -85 -40 -85 -46 0 -3 18 4 40 15 21 11 46 20 55
20 19 0 19 -29 0 -57 -21 -29 -38 -76 -25 -68 6 3 10 11 10 16 0 5 12 27 26
49 17 26 24 46 19 59 -7 22 -9 23 -40 12z"/>
<path d="M7436 5255 c24 -39 24 -40 24 -28 0 6 -9 21 -21 34 l-20 24 17 -30z"/>
<path d="M5070 5236 c0 -8 5 -18 10 -21 6 -3 10 1 10 9 0 8 -4 18 -10 21 -5 3
-10 -1 -10 -9z"/>
<path d="M4185 5188 c-16 -24 -22 -38 -14 -31 15 12 53 73 46 73 -2 0 -17 -19
-32 -42z"/>
<path d="M4662 5193 c1 -37 1 -37 5 -6 3 19 11 34 21 36 12 3 10 5 -5 6 -20 1
-23 -3 -21 -36z"/>
<path d="M4803 5223 c9 -2 25 -2 35 0 9 3 1 5 -18 5 -19 0 -27 -2 -17 -5z"/>
<path d="M5174 5218 c-3 -4 19 -8 48 -7 57 1 55 5 -5 11 -21 2 -40 0 -43 -4z"/>
<path d="M7470 5201 c0 -5 5 -13 10 -16 6 -3 10 -2 10 4 0 5 -4 13 -10 16 -5
3 -10 2 -10 -4z"/>
<path d="M5569 5141 c-24 -22 -57 -64 -73 -95 -15 -30 -34 -60 -41 -66 -8 -6
-17 -25 -20 -41 -9 -41 -27 -74 -57 -104 -25 -24 -54 -125 -37 -125 4 0 11 16
15 35 3 19 20 54 37 78 41 55 57 85 57 108 0 10 11 30 25 45 14 15 23 29 20
32 -9 9 24 59 74 112 28 30 49 55 48 56 -2 2 -23 -14 -48 -35z"/>
<path d="M6665 5135 c-22 -13 -58 -27 -80 -31 -22 -3 -49 -13 -60 -21 -17 -14
-18 -15 -2 -9 10 3 37 9 60 13 23 3 59 15 79 25 43 22 58 17 58 -19 0 -42 -29
-88 -86 -139 -31 -26 -63 -62 -71 -78 -9 -17 -19 -33 -23 -36 -4 -3 -11 -21
-14 -40 -6 -31 -5 -29 17 16 26 53 58 84 89 84 14 0 18 -8 18 -40 0 -23 5 -40
11 -40 7 0 9 -10 5 -25 -3 -14 -9 -36 -12 -50 -5 -19 -2 -25 10 -25 9 0 16 -8
16 -19 0 -19 136 -188 181 -226 30 -24 25 -17 -24 37 -126 140 -167 208 -166
276 1 20 -2 57 -5 82 -5 35 -2 48 11 58 23 17 8 15 -28 -4 -17 -8 -34 -12 -37
-8 -4 4 0 9 8 12 21 8 77 67 93 99 29 58 31 134 3 132 -6 0 -29 -11 -51 -24z"/>
<path d="M5261 5124 c0 -11 3 -14 6 -6 3 7 2 16 -1 19 -3 4 -6 -2 -5 -13z"/>
<path d="M4136 5104 c-4 -9 -4 -19 -1 -22 2 -3 7 3 11 12 4 9 4 19 1 22 -2 3
-7 -3 -11 -12z"/>
<path d="M6131 5104 c0 -11 3 -14 6 -6 3 7 2 16 -1 19 -3 4 -6 -2 -5 -13z"/>
<path d="M6110 5101 c0 -7 -4 -10 -9 -7 -5 3 -12 -1 -15 -10 -9 -23 -7 -34 4
-34 12 0 33 50 25 58 -3 3 -5 0 -5 -7z"/>
<path d="M4389 5053 c-40 -64 -42 -69 -10 -33 25 30 46 70 36 70 -2 0 -14 -17
-26 -37z"/>
<path d="M4662 5065 c0 -16 2 -22 5 -12 2 9 2 23 0 30 -3 6 -5 -1 -5 -18z"/>
<path d="M5256 5063 c-4 -13 -15 -23 -24 -24 -14 0 -13 -2 3 -9 26 -10 38 1
33 31 l-4 24 -8 -22z"/>
<path d="M4106 5030 c-22 -56 -19 -65 5 -11 11 24 18 46 15 48 -2 2 -11 -14
-20 -37z"/>
<path d="M6031 5054 c0 -11 3 -14 6 -6 3 7 2 16 -1 19 -3 4 -6 -2 -5 -13z"/>
<path d="M4819 5029 c16 -6 28 -6 35 1 7 7 -1 10 -24 9 -33 0 -34 -1 -11 -10z"/>
<path d="M5079 5023 c-13 -15 -12 -15 9 -4 23 12 28 21 13 21 -5 0 -15 -7 -22
-17z"/>
<path d="M6313 5019 c-24 -12 -43 -24 -43 -28 0 -3 -11 -18 -25 -33 -20 -22
-22 -27 -9 -32 19 -7 34 1 34 18 0 13 54 67 85 84 36 20 1 12 -42 -9z"/>
<path d="M6531 5024 c0 -11 3 -14 6 -6 3 7 2 16 -1 19 -3 4 -6 -2 -5 -13z"/>
<path d="M7570 5000 c0 -5 5 -10 11 -10 5 0 7 5 4 10 -3 6 -8 10 -11 10 -2 0
-4 -4 -4 -10z"/>
<path d="M4330 4959 c0 -5 5 -7 10 -4 6 3 10 8 10 11 0 2 -4 4 -10 4 -5 0 -10
-5 -10 -11z"/>
<path d="M4075 4949 c-4 -6 -5 -12 -2 -15 2 -3 7 2 10 11 7 17 1 20 -8 4z"/>
<path d="M4316 4925 c-9 -26 -7 -32 5 -12 6 10 9 21 6 23 -2 3 -7 -2 -11 -11z"/>
<path d="M5072 4888 c-1 -20 -5 -45 -8 -55 -5 -14 -4 -15 5 -7 7 7 11 29 8 55
-3 42 -4 42 -5 7z"/>
<path d="M4055 4899 c-4 -6 -5 -12 -2 -15 2 -3 7 2 10 11 7 17 1 20 -8 4z"/>
<path d="M7610 4905 c0 -5 5 -17 10 -25 5 -8 10 -10 10 -5 0 6 -5 17 -10 25
-5 8 -10 11 -10 5z"/>
<path d="M4296 4873 c-6 -14 -5 -15 5 -6 7 7 10 15 7 18 -3 3 -9 -2 -12 -12z"/>
<path d="M4850 4863 c0 -18 5 -33 10 -33 13 0 13 30 0 50 -7 11 -10 7 -10 -17z"/>
<path d="M6593 4868 c-4 -7 -8 -17 -10 -23 -1 -5 -5 -21 -9 -35 -7 -23 -6 -24
10 -11 9 8 16 24 14 35 -1 12 1 27 5 34 5 6 6 12 3 12 -3 0 -8 -6 -13 -12z"/>
<path d="M4271 4819 c-6 -18 -9 -34 -7 -36 2 -2 9 10 16 27 7 17 10 33 8 36
-3 3 -11 -9 -17 -27z"/>
<path d="M7631 4840 c1 -8 5 -26 9 -40 l8 -25 1 25 c0 14 -4 32 -9 40 -9 13
-10 13 -9 0z"/>
<path d="M5020 4830 c8 -5 20 -10 25 -10 6 0 3 5 -5 10 -8 5 -19 10 -25 10 -5
0 -3 -5 5 -10z"/>
<path d="M6417 4809 c4 -13 8 -18 11 -10 2 7 -1 18 -6 23 -8 8 -9 4 -5 -13z"/>
<path d="M5565 4807 c-41 -31 36 -72 103 -55 51 13 53 29 7 51 -43 20 -85 22
-110 4z"/>
<path d="M4015 4789 c-4 -6 -5 -12 -2 -15 2 -3 7 2 10 11 7 17 1 20 -8 4z"/>
<path d="M5753 4783 c-19 -7 -16 -43 3 -43 14 0 14 -2 3 -16 -12 -14 -11 -16
6 -13 11 3 20 10 19 17 -1 6 -2 23 -2 37 -2 25 -6 28 -29 18z"/>
<path d="M6634 4770 c0 -13 4 -16 10 -10 7 7 7 13 0 20 -6 6 -10 3 -10 -10z"/>
<path d="M4246 4761 c-8 -13 -36 -164 -32 -169 2 -2 10 23 16 55 7 32 16 73
20 91 8 32 6 41 -4 23z"/>
<path d="M7650 4763 c0 -5 5 -26 10 -48 23 -94 70 -343 72 -377 1 -21 6 -38
11 -38 6 0 7 17 2 43 -4 23 -10 65 -15 92 -16 101 -69 335 -76 335 -2 0 -4 -3
-4 -7z"/>
<path d="M5845 4750 c-3 -5 3 -10 14 -10 11 0 23 5 26 10 3 6 -3 10 -14 10
-11 0 -23 -4 -26 -10z"/>
<path d="M6322 4735 c-17 -37 -14 -45 4 -12 9 16 14 31 11 33 -2 2 -9 -7 -15
-21z"/>
<path d="M4002 4720 c0 -14 2 -19 5 -12 2 6 2 18 0 25 -3 6 -5 1 -5 -13z"/>
<path d="M6362 4720 c7 -10 14 -18 15 -16 6 6 -9 36 -18 36 -5 0 -4 -9 3 -20z"/>
<path d="M6617 4733 c-4 -3 -7 -11 -7 -17 0 -6 5 -5 12 2 6 6 9 14 7 17 -3 3
-9 2 -12 -2z"/>
<path d="M6281 4704 c0 -11 3 -14 6 -6 3 7 2 16 -1 19 -3 4 -6 -2 -5 -13z"/>
<path d="M6644 4699 c-3 -6 -2 -15 3 -20 5 -5 9 -1 10 11 2 22 -2 25 -13 9z"/>
<path d="M7430 4695 c0 -8 11 -58 25 -112 14 -54 25 -109 26 -123 0 -14 3 -19
6 -11 5 13 -2 58 -34 194 -15 65 -23 83 -23 52z"/>
<path d="M5291 4650 c-18 -27 -46 -59 -64 -72 -18 -12 -33 -26 -35 -30 -6 -14
-32 -8 -32 7 0 22 -25 18 -70 -10 -49 -31 -60 -31 -113 -3 -35 19 -60 23 -147
24 -58 1 -118 7 -135 14 -39 15 -135 25 -135 14 0 -5 11 -31 25 -58 14 -27 25
-57 25 -65 1 -22 50 60 50 82 0 11 5 17 13 14 6 -2 12 -16 12 -30 -1 -14 3
-23 7 -21 4 3 8 12 8 20 0 8 5 14 11 14 6 0 9 -7 6 -15 -5 -11 2 -9 29 6 38
21 81 17 81 -7 0 -13 -11 -18 -32 -14 -5 1 -5 -4 2 -10 9 -10 17 -9 34 4 30
20 45 21 29 1 -9 -11 -10 -19 -3 -26 8 -8 13 -7 18 2 5 8 4 10 -3 5 -7 -4 -12
-3 -12 3 0 13 32 30 47 24 6 -2 14 1 18 6 8 14 45 14 45 0 0 -6 -6 -9 -14 -6
-8 3 -20 0 -26 -8 -10 -12 -6 -13 22 -5 41 12 48 12 48 0 0 -5 -6 -10 -14 -10
-8 0 -22 -8 -33 -17 -10 -10 -14 -15 -8 -12 18 11 45 6 45 -8 0 -7 -4 -13 -10
-13 -5 0 -10 5 -10 11 0 5 -4 7 -10 4 -13 -8 34 -58 58 -61 11 -2 19 3 19 11
0 8 -4 12 -8 9 -4 -2 -11 0 -14 6 -4 6 -3 10 2 9 31 -5 35 2 15 24 -12 13 -22
27 -22 33 0 5 5 1 11 -8 9 -17 12 -17 42 -1 18 9 36 16 41 15 5 -2 6 4 3 12
-4 9 -3 17 1 20 8 5 44 -19 43 -28 -1 -3 -1 -8 -1 -11 0 -3 41 35 90 83 50 48
90 95 90 105 0 25 -3 22 -39 -33z m-691 -77 c0 -15 2 -16 10 -3 8 12 10 10 10
-10 0 -20 2 -22 10 -10 8 11 9 7 4 -15 -8 -34 -28 -62 -22 -30 2 11 -6 31 -19
45 -27 29 -29 40 -8 40 8 0 15 -8 15 -17z m285 -23 c-3 -5 -13 -10 -21 -10 -8
0 -12 5 -9 10 3 6 13 10 21 10 8 0 12 -4 9 -10z"/>
<path d="M6591 4686 c-9 -10 -8 -15 3 -19 8 -3 16 2 19 14 6 22 -6 25 -22 5z"/>
<path d="M3982 4653 c-16 -55 -34 -164 -28 -170 2 -3 7 12 11 33 7 43 29 129
40 157 4 9 3 17 -2 17 -6 0 -15 -17 -21 -37z"/>
<path d="M6582 4620 c-18 -29 -15 -36 8 -15 20 18 26 35 12 35 -4 0 -13 -9
-20 -20z"/>
<path d="M6505 4566 c17 -14 41 -38 53 -53 13 -15 19 -19 13 -8 -16 30 -44 58
-71 73 -21 11 -20 8 5 -12z"/>
<path d="M6665 4577 c-15 -12 -16 -15 -4 -22 8 -5 11 -5 7 0 -4 4 0 14 10 21
23 18 11 18 -13 1z"/>
<path d="M4196 4538 c-20 -163 -28 -248 -25 -278 4 -32 23 114 36 263 5 66 -3
78 -11 15z"/>
<path d="M6600 4549 c0 -5 5 -7 10 -4 6 3 10 1 10 -5 0 -7 5 -10 11 -8 19 6
14 21 -8 24 -13 2 -23 -1 -23 -7z"/>
<path d="M6788 4480 c7 -48 -7 -120 -24 -120 -8 0 -14 -11 -15 -27 0 -27 -1
-27 -9 -5 -5 12 -12 22 -14 22 -12 0 13 -45 26 -48 22 -4 62 140 51 186 -8 33
-20 27 -15 -8z"/>
<path d="M4640 4463 c-14 -14 -19 -24 -11 -22 13 5 49 49 40 49 -2 0 -15 -12
-29 -27z"/>
<path d="M5117 4479 c-19 -11 -47 -60 -47 -83 0 -8 11 -28 25 -44 14 -17 28
-45 31 -64 4 -18 16 -43 27 -55 19 -22 19 -24 3 -42 -23 -26 -3 -38 29 -17 15
10 26 12 30 6 3 -6 -5 -14 -19 -20 -34 -13 -33 -22 0 -14 19 5 25 3 20 -4 -5
-8 -2 -10 8 -6 9 3 14 15 13 25 -4 23 -56 79 -73 79 -12 0 -34 57 -34 86 0 6
-9 19 -20 29 -24 21 -27 50 -5 41 17 -6 20 5 4 21 -8 8 -3 18 16 36 28 25 23
43 -8 26z m78 -288 c-3 -6 -11 -11 -17 -11 -6 0 -6 6 2 15 14 17 26 13 15 -4z"/>
<path d="M5050 4470 c-9 -6 -10 -10 -3 -10 6 0 15 5 18 10 8 12 4 12 -15 0z"/>
<path d="M6580 4473 c1 -4 7 -19 15 -33 11 -20 14 -21 15 -7 0 10 -7 25 -15
33 -8 9 -15 12 -15 7z"/>
<path d="M6693 4468 c-12 -6 -24 -17 -27 -24 -7 -19 -5 -18 34 11 35 26 32 32
-7 13z"/>
<path d="M3942 4435 c0 -16 2 -22 5 -12 2 9 2 23 0 30 -3 6 -5 -1 -5 -18z"/>
<path d="M6900 4441 c8 -6 45 -21 82 -32 38 -12 65 -25 62 -30 -3 -5 0 -9 5
-9 6 0 11 5 11 10 0 6 23 -2 51 -16 28 -15 46 -30 40 -33 -6 -4 5 -13 25 -20
19 -7 33 -15 31 -18 -11 -10 16 -63 31 -63 24 -1 73 -46 114 -105 48 -69 54
-80 38 -70 -10 6 -12 4 -6 -11 12 -30 16 -90 5 -73 -5 8 -9 20 -9 27 0 7 -7
20 -15 28 -11 12 -15 12 -15 2 1 -24 36 -83 48 -81 6 2 9 -4 6 -11 -3 -8 3
-19 14 -25 17 -9 21 -8 25 7 4 16 4 16 12 -1 10 -23 -12 -122 -31 -141 -8 -8
-14 -28 -14 -45 0 -16 -5 -42 -12 -58 -6 -15 -11 -31 -10 -35 1 -5 -2 -8 -8
-8 -5 0 -14 -19 -21 -42 -21 -78 -142 -293 -160 -283 -9 6 -30 -19 -33 -39 -7
-46 -246 -311 -246 -273 0 11 -5 15 -11 11 -6 -3 -24 3 -40 15 -34 25 -58 29
-39 6 7 -8 18 -15 24 -15 6 0 18 -5 26 -10 13 -9 13 -11 0 -21 -12 -8 -10 -9
8 -4 12 3 22 3 22 -2 0 -11 -100 -83 -158 -113 -26 -13 -53 -30 -60 -37 -18
-18 -30 -16 -36 5 -3 10 -24 38 -46 62 -41 45 -48 60 -30 60 6 0 10 6 10 13 0
19 37 51 42 37 2 -6 15 -13 30 -14 28 -3 42 13 32 39 -4 8 -2 15 4 15 6 0 18
3 27 6 16 6 16 5 1 -24 -12 -23 -13 -33 -4 -38 6 -4 8 -3 5 3 -7 11 52 49 71
45 24 -5 11 9 -20 22 l-32 14 52 32 c48 29 72 60 36 46 -9 -3 -18 -6 -20 -6
-3 0 -3 -4 1 -9 5 -9 -22 -23 -35 -19 -13 4 -50 -24 -44 -34 5 -7 2 -9 -9 -5
-9 3 -26 -2 -39 -12 -34 -27 -127 -72 -136 -67 -11 7 -53 -31 -82 -74 -13 -19
-27 -37 -31 -40 -11 -9 -94 -144 -114 -187 -14 -29 -29 -46 -49 -53 -40 -14
-42 -13 -20 13 11 13 7 11 -12 -6 -29 -26 -61 -32 -74 -15 -3 4 -11 -2 -19
-13 -12 -20 -11 -21 31 -14 107 17 456 155 504 199 7 6 36 25 64 41 127 74
277 207 375 335 22 28 53 67 70 87 16 19 34 43 40 53 5 10 24 38 40 62 34 49
42 64 85 168 62 147 92 240 115 360 14 72 20 148 6 86 -9 -41 -26 -43 -40 -4
-36 99 -88 175 -195 286 -66 69 -118 100 -211 127 -33 10 -69 21 -80 26 -11 4
-31 11 -45 14 -20 5 -22 4 -10 -4z m-343 -1487 c1 -5 -13 -16 -32 -25 -41 -19
-44 -15 -13 18 21 23 39 26 45 7z m15 -64 c34 -20 78 -70 78 -89 0 -20 -184
-100 -229 -101 -8 0 -22 7 -32 16 -17 15 -17 18 -2 48 38 74 90 132 123 139
14 2 26 5 27 6 1 0 17 -8 35 -19z m-172 -199 c0 -10 -24 -21 -46 -21 -17 0
-18 22 -2 38 12 12 48 -1 48 -17z"/>
<path d="M6595 2820 c27 -12 43 -12 25 0 -8 5 -22 9 -30 9 -10 0 -8 -3 5 -9z"/>
<path d="M4910 4430 c0 -5 5 -10 10 -10 6 0 10 5 10 10 0 6 -4 10 -10 10 -5 0
-10 -4 -10 -10z"/>
<path d="M5130 4426 c6 -6 10 -21 11 -35 0 -24 1 -24 9 -6 15 35 11 54 -10 52
-13 -1 -16 -5 -10 -11z"/>
<path d="M7495 4257 c0 -98 3 -168 7 -155 8 31 8 231 0 288 -4 25 -7 -34 -7
-133z"/>
<path d="M6614 4394 c3 -8 6 -25 6 -36 0 -26 5 -21 14 13 4 20 1 29 -10 33
-12 5 -15 2 -10 -10z"/>
<path d="M3933 4345 c0 -33 2 -45 4 -27 2 18 2 45 0 60 -2 15 -4 0 -4 -33z"/>
<path d="M4943 4390 c2 -8 8 -26 12 -39 5 -18 4 -22 -6 -16 -8 4 -4 -2 8 -14
29 -28 35 -27 27 6 -4 15 -7 33 -7 40 0 7 -3 11 -5 8 -3 -3 -11 3 -19 13 -11
13 -13 13 -10 2z"/>
<path d="M6326 4372 l-19 -27 24 22 c12 12 21 24 18 27 -2 2 -13 -8 -23 -22z"/>
<path d="M4890 4363 c0 -6 8 -17 18 -24 16 -13 16 -13 2 6 -8 11 -16 22 -17
24 -2 2 -3 0 -3 -6z"/>
<path d="M7094 4345 c11 -8 25 -15 30 -15 6 0 2 7 -8 15 -11 8 -25 15 -30 15
-6 0 -2 -7 8 -15z"/>
<path d="M5025 4341 c-3 -5 -1 -12 5 -16 5 -3 10 1 10 9 0 18 -6 21 -15 7z"/>
<path d="M6326 4334 c-6 -15 -4 -15 11 -3 15 12 16 12 10 -5 -6 -16 -5 -17 8
-6 13 11 13 15 3 21 -19 12 -25 11 -32 -7z"/>
<path d="M4700 4316 c0 -2 8 -10 18 -17 15 -13 16 -12 3 4 -13 16 -21 21 -21
13z"/>
<path d="M7013 4313 c9 -2 25 -2 35 0 9 3 1 5 -18 5 -19 0 -27 -2 -17 -5z"/>
<path d="M4556 4294 c-3 -9 -6 -31 -6 -50 0 -29 4 -34 23 -34 33 0 55 -16 40
-31 -8 -8 -16 -8 -33 1 -56 30 -30 -27 53 -117 36 -38 80 -73 113 -89 l55 -27
42 19 c23 11 64 36 92 57 27 20 53 37 57 37 5 0 8 -15 8 -33 0 -28 -11 -44
-66 -98 -90 -88 -215 -236 -261 -310 -21 -34 -49 -73 -62 -87 -12 -14 -28 -38
-33 -53 -5 -16 -14 -29 -19 -29 -5 0 -9 -10 -9 -22 0 -20 -33 -118 -46 -140
-3 -4 -16 4 -30 20 -24 26 -24 25 3 -18 15 -25 30 -47 33 -50 3 -3 19 -23 35
-45 32 -43 177 -193 154 -160 -7 11 -29 36 -49 55 -65 66 -83 89 -85 112 -2
13 -6 35 -10 51 -5 17 -3 27 4 27 6 0 11 18 11 43 0 31 3 38 10 27 7 -11 10
-3 10 29 0 30 4 42 13 38 8 -3 12 9 13 40 1 24 8 51 16 61 7 9 22 34 31 56 10
21 21 36 24 32 4 -3 1 -12 -5 -18 -7 -7 -12 -25 -12 -40 0 -19 -5 -28 -16 -28
-12 0 -14 -10 -12 -50 4 -60 18 -67 18 -10 0 27 5 43 15 46 9 4 15 20 16 43 2
55 14 96 27 93 7 -1 12 7 12 18 0 20 77 130 91 130 4 0 15 -10 25 -22 14 -20
15 -20 9 -3 -16 43 -16 52 1 66 15 13 16 12 11 -11 -4 -14 -4 -19 -1 -12 3 6
9 10 13 7 5 -2 6 8 3 23 -5 25 -4 26 13 12 17 -14 17 -13 11 10 -7 24 -7 25 9
5 16 -19 16 -19 9 9 -6 25 -5 28 10 23 12 -5 16 -3 13 5 -2 7 10 29 27 49 62
73 96 118 96 127 0 5 14 15 30 22 44 18 30 23 -24 9 -26 -6 -49 -9 -52 -6 -3
3 2 17 11 31 16 25 16 26 0 26 -9 0 -26 11 -37 25 -11 14 -23 25 -28 25 -4 0
5 -14 21 -31 30 -33 40 -61 14 -39 -13 11 -14 10 -9 -4 8 -20 -23 -69 -38 -60
-6 4 -8 3 -5 -3 8 -13 -32 -47 -96 -82 -47 -25 -55 -27 -87 -16 -19 6 -40 20
-45 31 -6 10 -17 20 -25 22 -30 7 -70 55 -71 86 -1 29 -2 29 -8 7 l-7 -24 -18
27 c-20 31 -19 34 15 39 34 6 30 27 -11 55 -30 20 -35 28 -32 58 4 36 -2 44
-12 18z m484 -235 c-9 -16 -14 -18 -26 -8 -21 17 -17 29 11 29 23 0 24 -2 15
-21z"/>
<path d="M6301 4294 c0 -11 3 -14 6 -6 3 7 2 16 -1 19 -3 4 -6 -2 -5 -13z"/>
<path d="M6888 4289 c-21 -11 -38 -22 -38 -25 0 -2 9 0 20 6 11 6 20 7 20 3 0
-4 4 -3 8 3 4 5 23 15 42 21 30 9 31 11 10 12 -14 0 -42 -9 -62 -20z"/>
<path d="M6974 4274 c-18 -14 -18 -15 4 -4 12 6 22 13 22 15 0 8 -5 6 -26 -11z"/>
<path d="M7737 4175 c-9 -136 -20 -227 -43 -335 -33 -163 -58 -238 -117 -355
-50 -101 -73 -160 -57 -150 5 3 14 22 21 42 6 20 24 57 39 82 39 68 76 167
100 267 11 49 25 107 30 129 19 80 41 292 38 365 -3 71 -3 69 -11 -45z"/>
<path d="M6034 4246 c-17 -19 -50 -41 -74 -49 -42 -14 -43 -15 -21 -27 19 -10
26 -9 44 8 57 52 100 55 127 10 13 -21 20 -27 20 -16 0 9 -4 19 -9 22 -5 3 -7
14 -4 25 3 14 -3 21 -27 29 -17 7 -29 16 -25 22 11 19 0 10 -31 -24z"/>
<path d="M4789 4258 c15 -21 31 -23 31 -6 0 6 -3 8 -7 5 -3 -4 -13 -1 -22 6
-14 11 -14 10 -2 -5z"/>
<path d="M4995 4250 c10 -11 20 -20 23 -20 3 0 -3 9 -13 20 -10 11 -20 20 -23
20 -3 0 3 -9 13 -20z"/>
<path d="M6815 4250 c-3 -5 -2 -10 4 -10 5 0 13 5 16 10 3 6 2 10 -4 10 -5 0
-13 -4 -16 -10z"/>
<path d="M4898 4233 c6 -2 18 -2 25 0 6 3 1 5 -13 5 -14 0 -19 -2 -12 -5z"/>
<path d="M4859 4213 c-13 -16 -12 -17 4 -4 16 13 21 21 13 21 -2 0 -10 -8 -17
-17z"/>
<path d="M6561 4214 c0 -11 3 -14 6 -6 3 7 2 16 -1 19 -3 4 -6 -2 -5 -13z"/>
<path d="M6541 4204 c0 -11 3 -14 6 -6 3 7 2 16 -1 19 -3 4 -6 -2 -5 -13z"/>
<path d="M4907 4204 c-3 -4 -21 -10 -39 -15 -32 -8 -32 -9 6 -4 35 4 77 25 50
25 -6 0 -13 -3 -17 -6z"/>
<path d="M3933 4150 c0 -30 2 -43 4 -27 2 15 2 39 0 55 -2 15 -4 2 -4 -28z"/>
<path d="M6615 4190 c-3 -5 -1 -10 4 -10 6 0 11 5 11 10 0 6 -2 10 -4 10 -3 0
-8 -4 -11 -10z"/>
<path d="M4171 4149 c0 -24 4 -62 9 -84 6 -29 7 -19 3 40 -6 88 -13 114 -12
44z"/>
<path d="M4670 4186 c0 -2 8 -10 18 -17 15 -13 16 -12 3 4 -13 16 -21 21 -21
13z"/>
<path d="M6018 4160 c-11 -19 -13 -29 -5 -27 15 3 36 28 37 45 0 21 -14 13
-32 -18z"/>
<path d="M6547 4141 c-24 -22 -60 -66 -82 -98 -22 -32 -44 -62 -50 -66 -7 -6
-6 -10 3 -14 6 -2 12 -12 13 -21 0 -9 6 4 13 29 13 48 88 154 133 188 16 11
25 21 20 21 -4 0 -27 -18 -50 -39z"/>
<path d="M5417 4164 c-4 -4 -33 -6 -66 -6 -59 1 -60 1 -66 -31 -4 -18 -12 -38
-18 -45 -7 -9 -6 -11 7 -6 12 5 15 2 10 -12 -3 -11 4 -5 16 11 13 18 19 22 15
10 -17 -47 -17 -55 -2 -55 19 0 26 -27 16 -57 -5 -12 -4 -25 0 -28 12 -7 4
-111 -10 -136 -7 -15 -6 -19 6 -19 8 0 15 -8 15 -17 0 -15 -2 -16 -10 -3 -7
12 -10 11 -16 -5 -21 -60 -34 -85 -44 -85 -6 0 -8 -5 -4 -11 4 -8 9 -7 15 2 6
10 9 11 9 2 0 -7 4 -13 9 -13 7 0 14 13 25 50 1 3 5 10 9 17 18 28 32 126 32
224 0 96 -2 109 -25 142 -14 20 -28 37 -32 37 -5 0 -8 3 -8 8 0 4 40 7 90 6
49 -1 87 2 85 6 -3 5 1 11 7 13 7 3 -3 6 -23 6 -20 1 -39 -2 -42 -5z"/>
<path d="M5631 4154 c26 -8 61 -27 78 -43 17 -16 39 -32 48 -35 22 -9 15 -2
-55 53 -38 29 -63 41 -85 40 -30 0 -28 -1 14 -15z"/>
<path d="M7191 4154 c0 -11 3 -14 6 -6 3 7 2 16 -1 19 -3 4 -6 -2 -5 -13z"/>
<path d="M5942 4134 c-7 -8 -8 -14 -3 -14 10 0 25 19 20 25 -2 1 -10 -3 -17
-11z"/>
<path d="M6132 4130 c0 -14 3 -45 7 -70 l8 -45 1 40 c0 22 -4 54 -8 70 -7 27
-8 28 -8 5z"/>
<path d="M6076 4125 c-9 -26 -7 -32 5 -12 6 10 9 21 6 23 -2 3 -7 -2 -11 -11z"/>
<path d="M6094 4107 c-6 -18 -15 -41 -19 -52 l-8 -20 17 20 c16 19 17 19 10
-15 -3 -19 -9 -40 -13 -45 -3 -6 2 -3 11 7 16 17 17 17 21 1 3 -10 6 0 7 22 5
89 -9 133 -26 82z"/>
<path d="M7231 4073 c0 -36 3 -63 9 -63 6 0 10 11 10 24 0 13 2 39 5 57 4 25
3 29 -4 14 -8 -19 -9 -19 -13 5 -3 14 -6 -3 -7 -37z"/>
<path d="M5800 4110 c8 -5 24 -10 35 -10 17 0 17 2 5 10 -8 5 -24 10 -35 10
-17 0 -17 -2 -5 -10z"/>
<path d="M4752 4098 c-16 -16 -15 -38 2 -38 17 0 30 30 18 42 -4 4 -13 3 -20
-4z"/>
<path d="M6324 4091 c10 -11 15 -24 12 -29 -3 -5 1 -9 9 -9 8 0 15 2 15 4 0
11 -34 53 -43 53 -5 0 -2 -9 7 -19z"/>
<path d="M5888 4079 c40 -26 40 -36 1 -53 -29 -12 -30 -14 -14 -29 9 -10 25
-17 36 -17 10 0 19 -4 19 -8 0 -4 9 -8 20 -8 13 0 20 7 20 19 0 61 69 -75 72
-143 2 -29 7 -50 14 -50 6 0 14 -13 18 -30 3 -16 10 -30 16 -30 7 0 7 7 -1 21
-6 13 -8 39 -4 65 7 52 0 58 -14 12 l-9 -33 -1 30 c-2 54 -20 100 -64 164 -42
59 -102 111 -129 111 -7 0 2 -10 20 -21z m64 -81 c-6 -6 -16 -7 -23 -3 -9 6
-7 12 7 22 21 15 34 -1 16 -19z"/>
<path d="M7271 4058 c0 -25 -4 -55 -7 -65 -4 -11 0 -9 12 7 10 14 21 27 25 30
3 3 3 14 -2 25 l-8 20 -2 -20 c-1 -12 -5 -6 -9 15 -7 34 -7 34 -9 -12z"/>
<path d="M6016 4073 c-6 -14 -5 -15 5 -6 7 7 10 15 7 18 -3 3 -9 -2 -12 -12z"/>
<path d="M3941 4064 c0 -11 3 -14 6 -6 3 7 2 16 -1 19 -3 4 -6 -2 -5 -13z"/>
<path d="M6450 4069 c0 -5 5 -7 10 -4 6 3 10 8 10 11 0 2 -4 4 -10 4 -5 0 -10
-5 -10 -11z"/>
<path d="M5228 4064 c-5 -4 -8 -19 -8 -33 0 -18 3 -22 11 -14 6 6 9 21 7 33
-1 12 -6 18 -10 14z"/>
<path d="M5862 4051 c7 -11 16 -17 20 -14 10 5 -10 33 -23 33 -5 0 -4 -9 3
-19z"/>
<path d="M5161 4044 c0 -11 3 -14 6 -6 3 7 2 16 -1 19 -3 4 -6 -2 -5 -13z"/>
<path d="M6590 4050 c-9 -6 -10 -10 -3 -10 6 0 15 5 18 10 8 12 4 12 -15 0z"/>
<path d="M5130 4040 c0 -5 5 -10 11 -10 5 0 7 5 4 10 -3 6 -8 10 -11 10 -2 0
-4 -4 -4 -10z"/>
<path d="M7330 4049 c-4 -42 -6 -128 -3 -110 4 19 7 21 14 10 6 -9 7 6 3 41
-6 46 -13 76 -14 59z"/>
<path d="M5484 3987 c-31 -28 -51 -53 -45 -55 6 -2 11 -8 11 -14 0 -6 -7 -8
-15 -4 -14 5 -17 2 -19 -26 -1 -7 -7 -19 -13 -26 -16 -17 -17 -103 -2 -135 21
-47 80 -60 123 -26 23 18 26 27 26 88 0 74 10 91 51 91 18 0 38 -12 63 -40 20
-22 36 -45 36 -52 0 -6 3 -9 6 -6 18 19 -72 118 -107 118 -28 0 -59 -31 -59
-59 0 -15 -3 -31 -7 -35 -4 -4 -8 -15 -8 -24 0 -9 -8 -18 -17 -20 -14 -3 -18
3 -18 25 l-1 28 -24 -28 c-14 -15 -25 -24 -25 -18 0 11 39 51 50 51 3 0 7 15
8 34 3 34 2 35 -28 26 -18 -5 -30 -5 -30 1 0 5 1 9 3 9 1 0 20 7 42 15 28 10
33 14 18 15 -13 0 -23 5 -23 11 0 6 15 10 33 9 66 -4 67 -3 61 36 -5 33 -4 35
15 24 13 -6 21 -21 22 -38 1 -18 3 -21 6 -9 6 24 27 16 31 -11 2 -12 8 -22 13
-22 11 0 11 3 -1 34 -6 17 -6 26 0 26 6 0 10 -1 10 -2 0 -2 7 -21 15 -43 15
-39 16 -39 12 -7 -3 27 0 32 17 32 12 0 17 -4 11 -8 -5 -4 -11 -25 -11 -46 -2
-38 -1 -39 11 -15 l13 24 4 -30 c2 -19 9 -30 18 -30 16 0 31 -47 32 -97 1 -17
6 -28 14 -28 8 0 14 -5 14 -11 0 -5 -4 -8 -9 -5 -5 4 -12 0 -14 -6 -3 -7 -6
-4 -6 7 -1 17 -3 17 -11 5 -7 -11 -10 -11 -10 -2 0 7 -5 10 -11 6 -13 -8 -2
34 14 54 8 10 7 16 -4 22 -10 7 -16 3 -20 -13 -3 -12 -12 -21 -21 -21 -13 1
-15 -7 -11 -45 7 -82 -40 -202 -123 -313 -39 -52 -41 -57 -24 -63 25 -8 62 3
54 16 -3 5 -14 7 -25 4 -11 -4 -19 -2 -19 4 0 6 12 11 26 11 28 0 64 16 64 29
0 5 -12 6 -26 3 -17 -3 -25 -1 -21 5 4 5 20 10 36 11 16 0 39 6 50 12 41 21
21 -10 -55 -88 -46 -47 -77 -72 -81 -64 -2 6 -11 12 -19 12 -8 0 -14 5 -14 10
0 6 12 10 28 10 l27 0 -29 15 c-27 14 -31 14 -50 -3 -75 -69 -243 -154 -303
-156 -24 0 -43 -5 -43 -9 0 -5 -5 -5 -11 -1 -8 4 -7 9 2 15 11 6 -2 24 -50 71
-36 35 -59 56 -53 47 7 -9 8 -20 4 -24 -4 -5 0 -5 8 -1 8 4 7 1 -3 -7 -18 -15
-18 -15 1 -21 11 -4 28 -16 38 -27 17 -19 17 -20 -2 -13 -12 5 -9 -1 10 -18
l30 -25 -41 -26 c-23 -15 -53 -29 -67 -33 -15 -3 -29 -10 -32 -15 -3 -5 -10
-9 -15 -9 -6 0 -8 4 -4 9 3 5 0 13 -7 17 -7 4 -10 3 -5 -1 4 -5 -5 -22 -20
-39 -18 -20 -20 -24 -5 -12 15 14 22 15 22 6 0 -9 9 -5 25 10 42 39 28 11 -16
-33 -36 -36 -39 -38 -24 -12 l18 30 -26 -30 c-14 -16 -22 -34 -18 -38 10 -10
2 -57 -10 -57 -5 0 -9 -9 -9 -19 0 -26 -17 -36 -36 -20 -8 6 -16 10 -19 8 -4
-4 7 -12 116 -83 81 -52 272 -147 286 -141 7 2 15 0 18 -5 8 -13 25 -13 25 -1
0 5 -9 13 -21 16 -16 6 -19 12 -14 36 5 24 4 28 -10 23 -10 -4 -13 -13 -10
-25 8 -23 -12 -25 -41 -4 -12 8 -24 12 -26 9 -3 -3 -27 5 -52 18 l-47 22 7 46
c11 84 94 223 123 206 5 -4 13 -1 17 5 5 8 3 9 -6 4 -8 -5 -11 -3 -9 4 8 23
24 6 24 -25 1 -18 7 -39 14 -48 7 -8 11 -21 9 -27 -2 -7 -14 4 -27 24 -23 38
-39 51 -23 20 5 -10 8 -26 7 -35 -2 -10 2 -16 8 -15 6 1 13 -6 15 -15 2 -12
-3 -18 -15 -19 -16 0 -16 -1 2 -8 48 -19 53 5 29 137 l-6 34 138 -5 c77 -2
154 0 172 4 19 4 32 3 32 -3 0 -5 21 -9 48 -7 61 2 73 -1 42 -12 -27 -9 39 -3
95 8 l30 7 -30 6 c-18 4 9 8 68 8 56 1 97 -3 97 -8 0 -6 3 -9 8 -9 4 1 26 1
50 0 36 -1 43 -4 40 -18 -4 -19 -20 -21 -73 -9 -17 3 -11 -1 14 -10 41 -16 43
-18 38 -50 -3 -19 -4 -34 -2 -34 4 0 34 100 41 134 2 10 10 43 19 73 13 44 18
122 14 226 0 9 -6 17 -14 17 -8 0 -16 4 -19 8 -3 5 5 8 17 7 14 -1 25 5 29 19
6 15 7 12 5 -11 -2 -18 0 -30 5 -27 4 3 9 -1 9 -8 1 -7 5 1 10 17 7 24 8 21 5
-19 -2 -27 1 -58 8 -68 8 -14 8 -20 -2 -27 -20 -12 -11 -67 9 -63 9 1 22 -4
29 -13 10 -12 9 -18 -4 -30 -9 -9 -16 -23 -16 -31 0 -8 -4 -13 -9 -10 -5 4 -8
-2 -6 -11 1 -10 -5 -27 -14 -38 -14 -17 -14 -18 0 -7 9 6 19 8 23 4 25 -24 51
5 60 68 5 33 4 41 -3 30 -6 -8 -11 -24 -11 -35 0 -16 -2 -17 -10 -5 -5 9 -5
19 1 27 6 6 8 22 4 35 -3 13 -3 19 2 13 17 -22 33 -15 33 15 0 30 -14 40 -24
18 -3 -7 -4 7 -2 31 3 25 2 40 -2 34 -5 -7 -11 -3 -19 12 -11 24 -11 24 17 10
16 -8 31 -25 33 -37 3 -19 5 -17 6 7 7 101 20 186 35 215 19 40 20 46 3 28
-19 -19 -37 -89 -37 -140 0 -79 -47 -89 -66 -14 -5 23 -4 27 7 21 8 -5 4 3 -8
17 -13 13 -23 30 -23 36 0 7 -4 12 -8 12 -11 0 -55 91 -47 98 3 3 12 -3 19
-14 13 -16 14 -17 12 -2 -1 10 -5 21 -9 24 -4 4 -7 20 -7 36 0 16 -4 27 -9 23
-5 -3 -11 3 -14 12 -2 10 -2 0 1 -22 l4 -40 -20 23 c-12 14 -26 20 -36 16 -9
-3 -16 -3 -16 0 0 4 10 11 23 16 18 7 19 9 4 9 -11 1 -17 6 -14 14 2 6 8 11
13 10 5 -1 10 11 10 25 1 15 -1 21 -3 15 -3 -7 -9 -13 -14 -13 -12 0 -12 37 1
45 6 3 10 11 10 17 0 7 -6 6 -15 -2 -8 -7 -15 -18 -15 -24 0 -6 -16 -36 -36
-66 -20 -30 -31 -49 -23 -42 24 22 29 12 13 -25 -24 -57 -27 -71 -9 -40 20 35
29 30 15 -7 -11 -31 -6 -46 17 -46 10 0 14 6 10 19 -3 13 3 26 17 38 11 9 15
11 9 3 -18 -19 -16 -30 4 -30 15 0 15 -1 0 -18 -10 -10 -17 -23 -17 -28 0 -5
-10 -27 -21 -49 l-21 -40 21 19 c12 11 25 33 30 50 l9 31 1 -40 c1 -30 4 -36
11 -25 12 18 12 3 1 -25 -5 -11 -5 -27 0 -37 5 -9 4 -29 -2 -48 -6 -17 -8 -34
-5 -38 4 -3 9 4 13 16 3 12 9 22 13 22 21 0 15 -114 -10 -205 l-11 -40 -292
-2 c-161 -1 -340 -3 -399 -5 -60 -2 -108 -1 -108 2 0 3 10 10 22 15 12 6 24
16 26 23 3 11 0 12 -17 3 -11 -7 -21 -8 -21 -4 0 4 -7 -3 -16 -16 -10 -14 -23
-21 -35 -18 -12 3 -19 -1 -21 -14 -5 -32 -23 -17 -23 19 -1 38 10 50 19 25 6
-15 8 -15 17 -3 8 13 10 13 19 0 10 -13 11 -13 9 0 -1 8 -1 22 0 30 1 13 2 13
11 0 8 -12 10 -10 11 10 0 14 3 20 6 13 3 -8 12 -4 27 12 30 32 46 32 46 0 0
-14 -4 -25 -10 -25 -5 0 -10 -4 -10 -9 0 -12 22 -8 85 16 162 63 385 284 399
396 3 18 9 45 15 60 13 34 14 44 2 31 -5 -5 -14 -26 -21 -47 -6 -21 -26 -48
-44 -62 -33 -25 -76 -34 -76 -15 0 6 6 10 14 10 8 0 28 11 43 25 l28 25 -27
-6 c-32 -7 -39 11 -9 21 10 3 33 19 50 35 17 17 35 30 39 30 15 0 28 63 21
100 -4 20 -7 27 -9 15 -1 -13 -5 -9 -10 13 -4 18 -5 43 -2 54 3 14 1 19 -6 14
-7 -4 -12 -1 -12 9 0 8 -6 25 -12 37 -50 86 -111 129 -200 142 -34 4 -43 0
-94 -47z m53 -4 c3 -7 -3 -9 -16 -6 -12 3 -21 10 -21 15 0 13 32 6 37 -9z m-7
-29 c0 -2 -12 -4 -27 -4 -21 0 -24 3 -14 9 13 8 41 5 41 -5z m-54 -97 c-11 -7
-30 -22 -43 -34 -28 -26 -33 -28 -33 -10 0 7 17 23 38 35 38 22 73 30 38 9z
m-46 -71 c0 -2 -7 -7 -16 -10 -8 -3 -12 -2 -9 4 6 10 25 14 25 6z m44 -51 c3
-8 1 -15 -4 -15 -6 0 -10 7 -10 15 0 8 2 15 4 15 2 0 6 -7 10 -15z m44 3 c-2
-5 -8 -9 -13 -9 -5 0 -11 4 -13 9 -1 5 4 9 13 9 9 0 14 -4 13 -9z m282 -67 c0
-14 -44 -43 -48 -32 -2 6 -10 7 -19 4 -11 -4 -14 -3 -9 6 5 7 14 10 21 7 8 -3
19 2 25 10 14 16 30 19 30 5z m300 -162 c23 -45 39 -84 36 -87 -3 -3 -9 4 -13
14 -4 10 -16 28 -26 39 -19 20 -19 20 -13 -1 4 -12 2 -32 -4 -45 -8 -19 -10
-10 -6 42 3 66 -5 107 -17 78 -3 -8 -6 -2 -6 14 -1 15 1 27 4 27 2 0 22 -37
45 -81z m-340 -11 c0 -26 -16 -36 -62 -43 -33 -5 -48 -4 -48 4 0 6 8 11 18 11
9 1 33 9 52 19 19 11 36 19 38 20 1 1 2 -5 2 -11z m410 -147 c0 -10 -8 -25
-17 -32 -15 -12 -16 -12 -10 4 4 10 7 25 7 33 0 8 5 14 10 14 6 0 10 -8 10
-19z m-616 -64 c17 -12 17 -14 1 -27 -23 -19 -43 -21 -49 -5 -3 10 0 12 11 8
12 -5 14 -1 8 15 -7 25 3 28 29 9z m623 -39 c-3 -7 -5 -2 -5 12 0 14 2 19 5
13 2 -7 2 -19 0 -25z m-689 -34 c-7 -7 -28 -15 -45 -19 -31 -6 -33 -5 -33 19
0 32 17 34 23 4 3 -21 5 -20 17 10 12 32 13 32 31 16 16 -14 17 -20 7 -30z
m659 -1 c-3 -10 -5 -4 -5 12 0 17 2 24 5 18 2 -7 2 -21 0 -30z m-753 -18 c3
-8 1 -15 -4 -15 -6 0 -10 7 -10 15 0 8 2 15 4 15 2 0 6 -7 10 -15z m-24 -15
c0 -11 -4 -20 -10 -20 -5 0 -10 2 -10 4 0 2 -3 11 -6 20 -4 11 -1 16 10 16 9
0 16 -8 16 -20z m-220 -145 c5 -17 -21 -75 -34 -75 -13 0 -50 -84 -61 -137 -7
-37 -6 -37 -37 -22 -28 12 -61 77 -56 110 3 23 4 22 25 -13 31 -52 44 -48 27
9 -16 52 -11 70 7 29 15 -32 34 -35 24 -3 -14 45 -17 73 -7 58 8 -11 11 -9 14
10 4 22 5 23 12 4 21 -55 25 -59 20 -20 -2 22 -1 54 4 70 l9 30 6 -42 c4 -24
12 -43 17 -43 7 0 7 6 1 19 -7 12 -7 31 1 57 l12 39 6 -35 c4 -19 8 -39 10
-45z m1050 55 c0 -16 -38 -32 -46 -18 -4 6 -3 8 3 5 6 -4 16 0 23 8 14 17 20
19 20 5z m-1247 -220 c5 -21 0 -25 -21 -12 -7 5 -10 16 -6 25 7 20 20 15 27
-13z"/>
<path d="M6359 4023 c-1 -13 -3 -31 -3 -40 -1 -10 -5 -21 -10 -24 -12 -9 1
-42 13 -34 9 5 30 -51 32 -85 0 -10 3 -8 9 5 11 27 12 37 1 31 -12 -8 -19 36
-10 62 5 13 4 22 -1 22 -6 0 -10 10 -11 23 0 12 -4 31 -9 42 -8 19 -9 19 -11
-2z"/>
<path d="M4195 3970 c8 -92 24 -127 18 -40 -3 41 -9 79 -14 85 -5 5 -7 -14 -4
-45z"/>
<path d="M5154 3978 c0 -21 4 -38 8 -38 4 0 8 11 8 24 0 13 2 31 5 39 3 7 0
14 -8 14 -9 0 -13 -13 -13 -39z"/>
<path d="M6132 3985 c0 -16 2 -22 5 -12 2 9 2 23 0 30 -3 6 -5 -1 -5 -18z"/>
<path d="M7281 3974 c0 -11 3 -14 6 -6 3 7 2 16 -1 19 -3 4 -6 -2 -5 -13z"/>
<path d="M5102 3975 c3 -5 0 -16 -8 -23 -8 -7 -14 -8 -14 -2 0 5 -4 10 -10 10
-5 0 -9 -3 -9 -7 3 -21 -3 -24 -18 -12 -16 13 -17 12 -4 -4 9 -12 17 -14 26
-7 8 6 16 5 25 -3 10 -9 11 -9 6 1 -4 6 -2 12 3 12 6 0 11 -4 11 -10 0 -5 5
-10 10 -10 7 0 6 8 -1 23 -7 12 -11 24 -10 25 2 2 -1 7 -5 10 -4 4 -5 3 -2 -3z"/>
<path d="M3952 3950 c0 -8 4 -26 8 -40 6 -20 8 -21 8 -5 0 11 -3 29 -8 40 -5
12 -8 14 -8 5z"/>
<path d="M5900 3950 c-9 -6 -10 -10 -3 -10 6 0 15 5 18 10 8 12 4 12 -15 0z"/>
<path d="M6464 3935 c-9 -14 -14 -28 -11 -31 3 -3 13 8 22 25 19 37 12 41 -11
6z"/>
<path d="M5020 3925 c13 -14 26 -25 28 -25 3 0 -5 11 -18 25 -13 14 -26 25
-28 25 -3 0 5 -11 18 -25z"/>
<path d="M5311 3924 c0 -11 3 -14 6 -6 3 7 2 16 -1 19 -3 4 -6 -2 -5 -13z"/>
<path d="M5230 3916 c0 -8 4 -17 9 -20 5 -4 7 3 4 14 -6 23 -13 26 -13 6z"/>
<path d="M6131 3914 c0 -11 3 -14 6 -6 3 7 2 16 -1 19 -3 4 -6 -2 -5 -13z"/>
<path d="M7280 3920 c0 -5 5 -10 11 -10 5 0 7 5 4 10 -3 6 -8 10 -11 10 -2 0
-4 -4 -4 -10z"/>
<path d="M7357 3914 c-4 -4 -7 -14 -7 -23 0 -11 3 -12 11 -4 6 6 10 16 7 23
-2 6 -7 8 -11 4z"/>
<path d="M6091 3884 c0 -11 3 -14 6 -6 3 7 2 16 -1 19 -3 4 -6 -2 -5 -13z"/>
<path d="M4984 3855 c6 -19 16 -37 22 -39 8 -3 7 9 -4 35 -19 48 -33 52 -18 4z"/>
<path d="M5070 3881 c0 -6 4 -13 10 -16 6 -3 7 1 4 9 -7 18 -14 21 -14 7z"/>
<path d="M5960 3869 c-7 -11 -10 -23 -7 -25 2 -2 9 7 15 21 14 30 7 33 -8 4z"/>
<path d="M5897 3852 c-35 -36 -34 -46 3 -38 34 6 38 -1 13 -20 -17 -12 -16
-13 6 -14 13 0 21 3 18 6 -3 4 -1 16 4 27 10 18 9 19 -20 14 -18 -4 -31 -2
-31 3 0 6 3 10 8 10 4 0 13 9 20 20 17 27 11 25 -21 -8z"/>
<path d="M3970 3843 c0 -12 5 -25 10 -28 13 -8 13 15 0 35 -8 12 -10 11 -10
-7z"/>
<path d="M4956 3841 c-3 -5 1 -11 9 -14 9 -4 12 -1 8 9 -6 16 -10 17 -17 5z"/>
<path d="M7354 3836 c-3 -8 -4 -23 -2 -33 3 -11 6 -6 9 15 6 34 2 42 -7 18z"/>
<path d="M7385 3839 c-9 -14 -2 -20 14 -10 8 6 9 11 3 15 -6 3 -14 1 -17 -5z"/>
<path d="M4930 3832 c0 -7 -4 -10 -10 -7 -6 3 -7 -1 -3 -10 5 -14 8 -14 15 -3
7 9 8 7 5 -8 -6 -26 7 -52 17 -35 4 6 3 11 -3 11 -6 0 -8 6 -5 14 3 8 1 23 -5
33 -6 11 -11 13 -11 5z"/>
<path d="M6106 3825 c-9 -26 -7 -32 5 -12 6 10 9 21 6 23 -2 3 -7 -2 -11 -11z"/>
<path d="M6413 3794 c-6 -27 -10 -51 -8 -52 6 -6 27 78 23 90 -2 6 -9 -11 -15
-38z"/>
<path d="M5167 3785 c-9 -19 -14 -43 -11 -52 5 -15 4 -16 -5 -3 -9 13 -13 13
-28 -4 -16 -16 -16 -18 -1 -13 25 9 30 -4 11 -27 -18 -21 -18 -21 4 -3 21 18
61 122 51 132 -2 3 -12 -11 -21 -30z"/>
<path d="M3991 3784 c0 -11 3 -14 6 -6 3 7 2 16 -1 19 -3 4 -6 -2 -5 -13z"/>
<path d="M4234 3775 c12 -64 56 -175 95 -241 22 -37 41 -73 41 -79 0 -6 16
-34 35 -61 19 -27 35 -44 35 -37 0 6 -5 15 -10 18 -6 4 -31 46 -55 93 -25 48
-56 107 -70 132 -14 25 -25 52 -25 60 0 17 -39 132 -47 140 -3 3 -2 -8 1 -25z"/>
<path d="M4890 3791 c0 -7 -4 -9 -10 -6 -6 4 -7 -1 -3 -11 4 -12 8 -14 11 -5
3 8 8 7 19 -6 13 -16 13 -16 2 7 -15 32 -19 36 -19 21z"/>
<path d="M6355 3773 c-6 -33 -43 -158 -56 -192 -6 -13 -7 -26 -5 -29 6 -5 16
19 50 118 13 36 26 74 31 84 6 14 5 17 -4 11 -10 -5 -11 -2 -6 14 3 11 4 21 1
21 -3 0 -8 -12 -11 -27z"/>
<path d="M7387 3765 c-15 -79 -16 -95 -7 -95 12 0 22 58 18 101 l-4 34 -7 -40z"/>
<path d="M5943 3755 c4 -8 1 -17 -5 -21 -7 -4 -7 -9 1 -14 9 -5 8 -17 -2 -48
-8 -23 -14 -42 -13 -42 2 0 18 19 36 43 19 23 27 36 17 28 -15 -12 -17 -10
-17 28 0 23 -5 41 -11 41 -6 0 -9 -7 -6 -15z"/>
<path d="M4001 3749 c-1 -8 6 -24 15 -35 15 -19 15 -19 6 1 -5 11 -12 27 -15
35 -5 13 -6 13 -6 -1z"/>
<path d="M6382 3710 c-6 -11 -12 -32 -11 -47 l1 -28 8 30 c4 17 11 38 15 48
10 23 3 22 -13 -3z"/>
<path d="M4809 3707 c-25 -20 -31 -47 -10 -47 12 0 23 -12 31 -32 8 -18 26
-52 42 -76 16 -24 29 -54 30 -68 1 -13 6 -24 10 -24 15 0 -6 76 -29 104 -15
18 -21 35 -17 48 3 11 -2 30 -13 46 -10 15 -20 35 -23 44 -4 13 -8 14 -21 5z"/>
<path d="M5183 3705 c0 -8 4 -15 9 -15 4 0 8 4 8 9 0 6 -4 12 -8 15 -5 3 -9
-1 -9 -9z"/>
<path d="M4746 3665 c-8 -33 2 -72 21 -79 8 -4 13 -13 9 -21 -3 -8 -1 -15 4
-15 6 0 10 11 10 25 0 14 -5 24 -12 23 -8 -2 -11 12 -9 45 3 50 -12 64 -23 22z"/>
<path d="M7182 3610 c-13 -33 -27 -60 -31 -60 -5 0 -11 -21 -14 -47 -3 -27 -9
-57 -12 -68 -6 -17 -5 -18 5 -5 9 12 11 7 6 -25 -4 -27 -2 -35 4 -25 5 8 10
43 10 78 0 34 4 70 10 80 21 37 58 132 52 132 -4 0 -18 -27 -30 -60z"/>
<path d="M5000 3650 c8 -5 26 -10 39 -10 32 0 24 6 -19 14 -25 4 -31 3 -20 -4z"/>
<path d="M4797 3629 c4 -13 8 -18 11 -10 2 7 -1 18 -6 23 -8 8 -9 4 -5 -13z"/>
<path d="M4896 3633 c-6 -14 -5 -15 5 -6 7 7 10 15 7 18 -3 3 -9 -2 -12 -12z"/>
<path d="M5286 3633 c-6 -14 -5 -15 5 -6 7 7 10 15 7 18 -3 3 -9 -2 -12 -12z"/>
<path d="M4975 3630 c3 -5 18 -10 32 -10 32 0 28 5 -10 14 -19 4 -26 3 -22 -4z"/>
<path d="M5071 3624 c0 -11 3 -14 6 -6 3 7 2 16 -1 19 -3 4 -6 -2 -5 -13z"/>
<path d="M6230 3620 c6 -11 16 -18 21 -14 6 3 10 0 8 -7 -3 -25 1 -39 11 -39
17 0 11 39 -10 60 -27 27 -44 26 -30 0z"/>
<path d="M5051 3604 c0 -11 3 -14 6 -6 3 7 2 16 -1 19 -3 4 -6 -2 -5 -13z"/>
<path d="M4711 3594 c0 -11 3 -14 6 -6 3 7 2 16 -1 19 -3 4 -6 -2 -5 -13z"/>
<path d="M4976 3594 c-4 -12 -2 -15 9 -11 8 4 19 -1 24 -11 6 -9 11 -12 11 -6
0 6 -8 19 -19 28 -17 16 -19 16 -25 0z"/>
<path d="M5270 3599 c0 -5 5 -7 10 -4 6 3 10 8 10 11 0 2 -4 4 -10 4 -5 0 -10
-5 -10 -11z"/>
<path d="M5082 3580 c0 -14 2 -19 5 -12 2 6 2 18 0 25 -3 6 -5 1 -5 -13z"/>
<path d="M5061 3564 c0 -11 3 -14 6 -6 3 7 2 16 -1 19 -3 4 -6 -2 -5 -13z"/>
<path d="M5126 3565 c-3 -9 -6 -22 -5 -28 0 -7 5 -1 10 12 5 13 8 26 5 28 -2
2 -6 -3 -10 -12z"/>
<path d="M4070 3561 c0 -6 4 -13 10 -16 6 -3 7 1 4 9 -7 18 -14 21 -14 7z"/>
<path d="M4950 3557 c0 -8 7 -14 15 -14 8 0 15 6 15 14 0 7 -7 13 -15 13 -8 0
-15 -6 -15 -13z"/>
<path d="M4987 3540 c-3 -11 -1 -20 4 -20 5 0 9 9 9 20 0 11 -2 20 -4 20 -2 0
-6 -9 -9 -20z"/>
<path d="M5035 3541 c3 -5 1 -12 -4 -15 -5 -4 -3 -23 7 -46 10 -27 18 -36 23
-28 4 6 3 20 -2 29 -5 10 -9 29 -9 43 0 14 -5 26 -11 26 -5 0 -8 -4 -4 -9z"/>
<path d="M5096 3527 c3 -10 9 -15 12 -12 3 3 0 11 -7 18 -10 9 -11 8 -5 -6z"/>
<path d="M4930 3519 c0 -5 5 -7 10 -4 6 3 10 8 10 11 0 2 -4 4 -10 4 -5 0 -10
-5 -10 -11z"/>
<path d="M4956 3504 c-4 -9 -4 -19 -1 -22 2 -3 7 3 11 12 4 9 4 19 1 22 -2 3
-7 -3 -11 -12z"/>
<path d="M4762 3490 c0 -14 2 -19 5 -12 2 6 2 18 0 25 -3 6 -5 1 -5 -13z"/>
<path d="M5001 3495 c0 -5 6 -21 14 -35 8 -14 14 -20 14 -15 0 6 -6 21 -14 35
-8 14 -14 21 -14 15z"/>
<path d="M5210 3465 c-7 -9 -10 -18 -7 -21 3 -3 10 4 17 15 13 25 8 27 -10 6z"/>
<path d="M4116 3447 c3 -10 9 -15 12 -12 3 3 0 11 -7 18 -10 9 -11 8 -5 -6z"/>
<path d="M4770 3446 c0 -8 4 -17 9 -20 5 -4 7 3 4 14 -6 23 -13 26 -13 6z"/>
<path d="M5000 3430 c12 -17 26 -28 31 -25 5 4 9 1 9 -4 0 -21 2 -26 12 -38 6
-7 16 -13 22 -13 6 0 4 5 -4 10 -8 5 -15 13 -15 17 -1 4 -5 19 -9 32 -6 18
-10 20 -16 10 -7 -10 -12 -6 -21 14 -7 15 -16 27 -21 27 -5 0 0 -14 12 -30z"/>
<path d="M4822 3420 c2 -18 9 -35 16 -38 18 -6 15 43 -4 59 -14 11 -15 9 -12
-21z"/>
<path d="M5196 3415 c-9 -26 -7 -32 5 -12 6 10 9 21 6 23 -2 3 -7 -2 -11 -11z"/>
<path d="M4871 3404 c0 -11 3 -14 6 -6 3 7 2 16 -1 19 -3 4 -6 -2 -5 -13z"/>
<path d="M7016 3403 c-6 -14 -5 -15 5 -6 7 7 10 15 7 18 -3 3 -9 -2 -12 -12z"/>
<path d="M7089 3393 c-13 -16 -12 -17 4 -4 16 13 21 21 13 21 -2 0 -10 -8 -17
-17z"/>
<path d="M5010 3361 c5 -11 15 -23 21 -27 6 -3 3 5 -6 20 -20 30 -30 35 -15 7z"/>
<path d="M4160 3350 c6 -11 13 -20 16 -20 2 0 0 9 -6 20 -6 11 -13 20 -16 20
-2 0 0 -9 6 -20z"/>
<path d="M4834 3348 c3 -13 6 -30 6 -38 0 -12 2 -12 9 -2 10 17 2 62 -11 62
-6 0 -8 -10 -4 -22z"/>
<path d="M4881 3354 c0 -11 3 -14 6 -6 3 7 2 16 -1 19 -3 4 -6 -2 -5 -13z"/>
<path d="M6370 3351 c0 -5 9 -7 20 -4 11 3 20 7 20 9 0 2 -9 4 -20 4 -11 0
-20 -4 -20 -9z"/>
<path d="M7110 3340 c-6 -11 -8 -20 -6 -20 3 0 10 9 16 20 6 11 8 20 6 20 -3
0 -10 -9 -16 -20z"/>
<path d="M4960 3331 c0 -9 30 -24 36 -18 2 1 -6 8 -16 15 -11 7 -20 8 -20 3z"/>
<path d="M5172 3300 c0 -19 2 -27 5 -17 2 9 2 25 0 35 -3 9 -5 1 -5 -18z"/>
<path d="M7153 3303 c0 -9 4 -10 14 -2 7 6 13 12 13 14 0 1 -6 2 -13 2 -8 0
-14 -6 -14 -14z"/>
<path d="M7453 3247 c-23 -40 -57 -88 -75 -107 -19 -20 -56 -67 -83 -105 -51
-74 -153 -180 -245 -255 -30 -25 -65 -54 -78 -65 -12 -10 -55 -38 -95 -62
-100 -59 -107 -64 -63 -47 55 22 142 82 255 177 113 95 156 139 219 227 25 36
61 78 79 94 18 16 50 56 70 90 20 33 45 76 55 94 11 17 16 32 11 32 -4 -1 -27
-33 -50 -73z"/>
<path d="M6936 3270 c-20 -22 -33 -40 -28 -40 9 0 50 43 65 68 15 23 0 12 -37
-28z"/>
<path d="M4196 3287 c3 -10 9 -15 12 -12 3 3 0 11 -7 18 -10 9 -11 8 -5 -6z"/>
<path d="M4940 3275 c-12 -14 -3 -25 19 -25 14 0 14 2 1 11 -11 8 -3 9 33 6
57 -5 55 2 -3 13 -27 5 -43 3 -50 -5z"/>
<path d="M4226 3233 c9 -16 34 -53 53 -83 40 -62 92 -122 99 -116 2 3 -10 20
-27 38 -17 18 -31 36 -31 40 0 4 -6 13 -13 20 -7 7 -30 39 -50 71 -20 31 -40
57 -43 57 -3 0 2 -12 12 -27z"/>
<path d="M5171 3235 c0 -11 4 -27 9 -35 9 -13 10 -13 9 0 0 8 -4 24 -9 35 l-9
20 0 -20z"/>
<path d="M6980 3230 c0 -19 3 -21 12 -12 9 9 9 15 0 24 -9 9 -12 7 -12 -12z"/>
<path d="M4660 3231 c0 -6 4 -13 10 -16 6 -3 7 1 4 9 -7 18 -14 21 -14 7z"/>
<path d="M5025 3230 c27 -12 43 -12 25 0 -8 5 -22 9 -30 9 -10 0 -8 -3 5 -9z"/>
<path d="M4958 3223 c-36 -9 -17 -18 37 -19 31 0 50 3 43 7 -21 10 -62 17 -80
12z"/>
<path d="M6920 3193 c0 -13 -3 -14 -8 -6 -5 8 -17 10 -37 5 -33 -9 -44 -27
-18 -28 10 -1 26 -4 35 -8 12 -6 21 0 33 23 9 18 11 31 5 31 -5 0 -10 -8 -10
-17z"/>
<path d="M4675 3191 c-3 -5 -1 -12 5 -16 5 -3 10 -3 10 1 0 4 12 -3 28 -17 26
-23 26 -23 -2 9 -33 36 -33 36 -41 23z"/>
<path d="M4632 3163 c24 -25 38 -32 18 -8 -6 8 -9 18 -7 22 3 5 -3 9 -13 9
-18 0 -18 -2 2 -23z"/>
<path d="M4910 3140 c-18 -23 -30 -43 -28 -45 2 -3 19 15 36 40 39 56 34 59
-8 5z"/>
<path d="M4880 3149 c0 -5 5 -7 10 -4 6 3 10 8 10 11 0 2 -4 4 -10 4 -5 0 -10
-5 -10 -11z"/>
<path d="M6760 3149 c0 -5 5 -7 10 -4 6 3 10 8 10 11 0 2 -4 4 -10 4 -5 0 -10
-5 -10 -11z"/>
<path d="M6627 3123 c-3 -5 -2 -15 2 -22 5 -7 11 -9 14 -4 3 5 2 15 -2 22 -5
7 -11 9 -14 4z"/>
<path d="M4914 3098 l-19 -23 23 19 c21 18 27 26 19 26 -2 0 -12 -10 -23 -22z"/>
<path d="M5860 3041 c0 -5 17 -19 37 -31 24 -14 32 -16 24 -6 -11 13 -11 16 0
16 20 0 -23 29 -43 30 -10 0 -18 -4 -18 -9z"/>
<path d="M5805 3024 c-16 -12 -15 -13 10 -11 16 1 30 7 32 13 5 15 -21 13 -42
-2z"/>
<path d="M6166 3017 c-3 -15 -11 -25 -16 -22 -5 3 -7 -1 -4 -9 4 -11 -6 -20
-35 -33 -39 -17 -52 -35 -32 -47 4 -3 16 3 26 14 10 11 21 17 26 14 10 -6 52
83 46 99 -2 7 -7 -1 -11 -16z"/>
<path d="M5530 3005 c-73 -17 -34 -17 55 -1 45 9 57 14 35 14 -19 0 -60 -6
-90 -13z"/>
<path d="M6103 3005 c-17 -18 -16 -22 2 -22 8 0 12 4 9 9 -3 4 5 12 18 17 21
9 21 10 3 10 -11 0 -26 -6 -32 -14z"/>
<path d="M4740 2986 c0 -2 8 -10 18 -17 15 -13 16 -12 3 4 -13 16 -21 21 -21
13z"/>
<path d="M5438 2983 c6 -2 18 -2 25 0 6 3 1 5 -13 5 -14 0 -19 -2 -12 -5z"/>
<path d="M5730 2980 c-9 -6 -10 -10 -3 -10 6 0 15 5 18 10 8 12 4 12 -15 0z"/>
<path d="M5954 2976 c11 -9 24 -16 30 -16 12 0 7 5 -24 19 -24 11 -24 11 -6
-3z"/>
<path d="M6613 2978 c-15 -19 -23 -48 -14 -48 9 0 34 50 28 57 -2 2 -9 -2 -14
-9z"/>
<path d="M6786 2975 c-4 -13 -2 -14 14 -5 23 13 26 20 6 20 -8 0 -16 -7 -20
-15z"/>
<path d="M4471 2920 c29 -33 55 -60 60 -60 4 0 -18 27 -48 60 -31 33 -58 60
-60 60 -3 0 19 -27 48 -60z"/>
<path d="M6823 2968 c-13 -22 -13 -42 0 -29 10 10 19 41 12 41 -2 0 -7 -6 -12
-12z"/>
<path d="M5318 2963 c6 -2 18 -2 25 0 6 3 1 5 -13 5 -14 0 -19 -2 -12 -5z"/>
<path d="M6435 2940 c-10 -11 -23 -28 -29 -38 -6 -10 -21 -34 -33 -53 -13 -19
-23 -38 -23 -44 0 -12 79 96 80 109 0 5 8 15 17 22 10 7 15 15 12 18 -3 3 -14
-3 -24 -14z"/>
<path d="M5620 2920 c-19 -11 -31 -19 -27 -20 11 0 67 29 67 35 0 7 -1 7 -40
-15z"/>
<path d="M6091 2891 c-19 -17 -36 -37 -37 -46 -1 -9 -11 -23 -21 -31 -16 -13
-16 -13 0 -8 9 3 17 1 17 -5 0 -6 -6 -11 -13 -11 -8 0 -22 -9 -32 -20 -10 -11
-15 -20 -10 -20 7 0 -32 -47 -92 -113 -27 -30 -47 -29 -21 0 8 10 18 25 22 33
4 8 -6 -1 -23 -20 l-30 -35 -4 50 -4 50 0 -53 c1 -60 -8 -72 -60 -83 -26 -5
-10 -6 47 -4 47 3 119 5 160 6 41 1 84 5 95 10 11 4 -23 5 -75 2 l-95 -6 28
37 c16 20 26 40 22 45 -3 5 0 13 6 17 8 5 10 2 5 -7 -4 -8 2 -3 13 11 27 33
101 139 101 146 0 3 10 18 21 33 31 43 19 55 -20 22z m-159 -263 c-7 -7 -12
-8 -12 -2 0 14 12 26 19 19 2 -3 -1 -11 -7 -17z"/>
<path d="M5842 2890 c0 -14 2 -19 5 -12 2 6 2 18 0 25 -3 6 -5 1 -5 -13z"/>
<path d="M5997 2893 c-3 -10 -15 -43 -27 -73 -12 -30 -17 -50 -12 -45 13 15
55 125 50 131 -3 3 -8 -3 -11 -13z"/>
<path d="M6054 2895 c-9 -21 -2 -26 13 -10 8 9 9 16 3 20 -6 3 -13 -1 -16 -10z"/>
<path d="M5560 2890 c-9 -6 -10 -10 -3 -10 6 0 15 5 18 10 8 12 4 12 -15 0z"/>
<path d="M5492 2854 c-54 -33 -54 -40 1 -12 50 26 52 27 46 33 -3 2 -24 -7
-47 -21z"/>
<path d="M5140 2851 c0 -6 4 -13 10 -16 6 -3 7 1 4 9 -7 18 -14 21 -14 7z"/>
<path d="M5181 2844 c6 -7 16 -11 21 -8 11 7 3 17 -18 20 -12 2 -13 -1 -3 -12z"/>
<path d="M6033 2853 c4 -3 -1 -12 -11 -20 -15 -13 -15 -13 6 -3 19 9 23 30 5
30 -4 0 -3 -3 0 -7z"/>
<path d="M4546 2842 c5 -4 25 -21 44 -37 l35 -30 -34 38 c-19 20 -39 37 -45
37 -6 0 -6 -3 0 -8z"/>
<path d="M5110 2832 c0 -5 6 -16 13 -27 10 -13 16 -15 21 -6 4 6 2 18 -4 26
-13 16 -30 20 -30 7z"/>
<path d="M5231 2814 c0 -11 3 -14 6 -6 3 7 2 16 -1 19 -3 4 -6 -2 -5 -13z"/>
<path d="M5262 2805 c0 -16 2 -22 5 -12 2 9 2 23 0 30 -3 6 -5 -1 -5 -18z"/>
<path d="M5841 2814 c0 -11 3 -14 6 -6 3 7 2 16 -1 19 -3 4 -6 -2 -5 -13z"/>
<path d="M4630 2773 c0 -4 16 -18 36 -31 20 -13 33 -19 30 -13 -10 16 -66 53
-66 44z"/>
<path d="M5842 2755 c0 -16 2 -22 5 -12 2 9 2 23 0 30 -3 6 -5 -1 -5 -18z"/>
<path d="M5927 2724 c-10 -19 -12 -32 -7 -29 12 7 33 55 27 61 -2 2 -11 -12
-20 -32z"/>
<path d="M4730 2697 c0 -3 12 -12 26 -22 15 -9 23 -12 20 -6 -7 11 -46 35 -46
28z"/>
<path d="M4795 2650 c3 -5 11 -10 16 -10 6 0 7 5 4 10 -3 6 -11 10 -16 10 -6
0 -7 -4 -4 -10z"/>
<path d="M5360 2639 c66 -24 181 -48 174 -38 -2 4 -25 11 -51 15 -25 4 -69 15
-97 25 -28 11 -58 19 -66 18 -8 0 10 -9 40 -20z"/>
<path d="M5536 2643 c-6 -14 -5 -15 5 -6 7 7 10 15 7 18 -3 3 -9 -2 -12 -12z"/>
<path d="M4920 2570 c19 -17 46 -33 60 -36 30 -7 131 -44 145 -54 21 -15 105
-38 105 -29 0 5 -7 9 -15 9 -8 0 -40 12 -72 26 -31 15 -86 37 -122 51 -36 13
-82 33 -101 44 l-35 19 35 -30z"/>
<path d="M5558 2593 c7 -3 16 -2 19 1 4 3 -2 6 -13 5 -11 0 -14 -3 -6 -6z"/>
<path d="M6660 2540 c-52 -27 -144 -65 -203 -86 -60 -20 -106 -38 -104 -41 10
-10 241 78 328 126 120 65 104 66 -21 1z"/>
<path d="M6295 2404 l-40 -13 40 6 c40 6 52 10 44 17 -2 2 -22 -3 -44 -10z"/>
<path d="M5415 2382 c11 -11 134 -29 124 -18 -4 4 -26 9 -50 12 -24 3 -53 7
-64 11 -14 3 -17 2 -10 -5z"/>
<path d="M6185 2383 c-16 -3 -34 -8 -38 -13 -5 -4 13 -4 39 1 26 5 50 11 52
14 6 5 -3 5 -53 -2z"/>
<path d="M5626 2348 c3 -4 12 -8 20 -8 8 0 14 4 14 8 0 4 -9 8 -19 8 -11 0
-17 -4 -15 -8z"/>
<path d="M5900 2349 c-37 -5 -30 -6 39 -7 46 -1 82 0 80 2 -10 8 -78 11 -119
5z"/>
<path d="M6043 2353 c9 -2 25 -2 35 0 9 3 1 5 -18 5 -19 0 -27 -2 -17 -5z"/>
<path d="M5678 2343 c6 -2 18 -2 25 0 6 3 1 5 -13 5 -14 0 -19 -2 -12 -5z"/>
</g>
</svg>
